<?xml version="1.0" encoding="UTF-8"?>
<svg version="1.1" xmlns="http://www.w3.org/2000/svg" width="513" height="1024">
<path d="M0 0 C7.45648381 7.41411743 11.60629929 16.6183334 16 26 C16.66552704 27.39247234 17.33219024 28.78440223 18 30.17578125 C21.730871 37.98572573 25.29807959 45.86256169 28.79125977 53.78125 C31.61598866 60.1724458 34.51880023 66.52623661 37.4375 72.875 C43.15204443 85.31133222 48.77573538 97.78650307 54.36129761 110.28123474 C55.49968894 112.82735622 56.63891826 115.37310249 57.77813721 117.91885376 C58.59314904 119.74127895 59.40671151 121.56435211 60.22021484 123.38745117 C63.20399408 130.05753967 66.24485044 136.69680088 69.34536743 143.31309509 C72.30515661 149.63516035 75.19704846 155.98731224 78.07955933 162.34490967 C79.03806379 164.4589521 79.99756539 166.57253975 80.95727539 168.68603516 C82.30538238 171.65510595 83.65311546 174.62434596 85.00048828 177.59375 C87.83699776 183.84482132 90.67539411 190.0950346 93.51507568 196.34466553 C94.13081085 197.69995107 94.7464111 199.05529792 95.36187744 200.41070557 C98.95348465 208.32008677 102.55772118 216.22345 106.18359375 224.1171875 C112.30388156 237.44734505 118.41502992 250.76613228 124.13134766 264.27612305 C126.89550451 270.80153141 129.84880439 277.22278921 132.88183594 283.62792969 C135.40061447 288.97125987 137.8862399 294.33013879 140.375 299.6875 C140.65784851 300.29631012 140.94069702 300.90512024 141.2321167 301.53237915 C147.51357622 315.05972837 153.67707821 328.63510511 159.625 342.3125 C162.29676783 348.45326278 165.08674351 354.53204206 167.93359375 360.59375 C175.21278022 376.09538266 182.34608344 391.654575 189.19287109 407.35229492 C191.66510287 413.01002403 194.20901111 418.61882573 196.875 424.1875 C201.99935263 435.08594375 205.75128262 446.16612478 208 458 C208.20625 459.04414063 208.4125 460.08828125 208.625 461.1640625 C214.96957763 499.49588568 205.19006031 532.57313886 189.015625 566.73046875 C186.47523809 572.09567238 183.98815471 577.4854204 181.5 582.875 C180.9944458 583.96997803 180.4888916 585.06495605 179.96801758 586.19311523 C175.10932666 596.73383953 170.30772631 607.30025395 165.51123047 617.86938477 C161.73380719 626.19208334 157.94021495 634.50703385 154.125 642.8125 C150.72487049 650.21793577 147.34586238 657.63237328 144 665.0625 C143.63793457 665.86598877 143.27586914 666.66947754 142.90283203 667.49731445 C140.88920462 671.97942906 138.92181057 676.4777395 137 681 C137.5775 681.35191406 138.155 681.70382812 138.75 682.06640625 C139.4925 682.56011719 140.235 683.05382812 141 683.5625 C141.7425 684.03816406 142.485 684.51382813 143.25 685.00390625 C145 687 145 687 144.94140625 690.43359375 C144.61891048 694.08227446 144.61891048 694.08227446 147.08984375 696.40625 C148.02957031 697.0971875 148.96929687 697.788125 149.9375 698.5 C150.93910156 699.25796875 151.94070313 700.0159375 152.97265625 700.796875 C153.97167969 701.52390625 154.97070312 702.2509375 156 703 C157.62961334 704.24397965 159.25509095 705.49340951 160.875 706.75 C161.59558594 707.30816406 162.31617188 707.86632812 163.05859375 708.44140625 C166.9710167 711.58236552 169.87218208 714.4676524 172 719 C171.61070312 719.40347656 171.22140625 719.80695312 170.8203125 720.22265625 C150.77991227 741.97156986 140.58192661 770.2222855 136 799 C133 799 133 799 131.55786133 797.83837891 C131.0708374 797.30647949 130.58381348 796.77458008 130.08203125 796.2265625 C129.55029297 795.6490625 129.01855469 795.0715625 128.47070312 794.4765625 C127.92349609 793.86554687 127.37628906 793.25453125 126.8125 792.625 C126.25369141 792.02171875 125.69488281 791.4184375 125.11914062 790.796875 C121 786.27034684 121 786.27034684 121 784 C120.46375 783.773125 119.9275 783.54625 119.375 783.3125 C114.16890258 780.43544616 110.16980044 776.16980044 106 772 C103.06745825 769.42508529 100.91219743 767.5795848 97 767 C96.88986572 767.53866699 96.77973145 768.07733398 96.66625977 768.63232422 C95.84462986 771.55213618 94.63223173 774.13774036 93.33984375 776.8828125 C92.7979541 778.03998779 92.25606445 779.19716309 91.69775391 780.3894043 C91.26719696 781.30295181 91.26719696 781.30295181 90.82794189 782.23495483 C89.32133837 785.43285996 87.82699491 788.63648474 86.33203125 791.83984375 C86.03709778 792.47124771 85.74216431 793.10265167 85.43829346 793.75318909 C83.28214501 798.37592362 81.17678395 803.01766292 79.125 807.6875 C75.70983827 815.45390695 72.19652831 823.17454035 68.67645264 830.89376831 C63.24633678 842.80178483 57.8885502 854.73508555 52.64355469 866.72607422 C49.79078791 873.23670285 46.8512473 879.69308102 43.81640625 886.12109375 C40.19465112 893.81344516 36.72493597 901.57742771 33.21459961 909.32104492 C27.20491718 922.57616962 21.15454096 935.81140091 15 949 C14.5978125 949.86608887 14.195625 950.73217773 13.78125 951.62451172 C7.95523526 964.09062272 1.17330297 975.74668109 -12.375 980.875 C-21.36724792 983.44641336 -29.76230245 982.42948821 -38 978 C-52.49257338 967.6849307 -58.45538098 952.26631772 -65.19140625 936.4765625 C-67.45466767 931.19371752 -69.85045608 925.98065422 -72.29530334 920.78030396 C-74.4011058 916.29714848 -76.46581708 911.79734334 -78.5 907.28125 C-78.93293617 906.32017838 -78.93293617 906.32017838 -79.37461853 905.33969116 C-80.54257898 902.74439993 -81.70875655 900.14830923 -82.875 897.55224609 C-86.31184713 889.9056448 -89.78664562 882.27994876 -93.34313965 874.6882019 C-96.77609867 867.35546338 -100.13789156 859.99042615 -103.5 852.625 C-104.19766823 851.09749153 -104.89534085 849.56998506 -105.59301758 848.04248047 C-107.73012501 843.36231312 -109.86537256 838.68129892 -112 834 C-112.49811188 832.90776123 -112.49811188 832.90776123 -113.00628662 831.79345703 C-117.68409691 821.53496361 -122.34925158 811.27079047 -127 801 C-127.30973755 800.31629333 -127.6194751 799.63258667 -127.93859863 798.92816162 C-129.7805991 794.86127295 -131.61890659 790.79274872 -133.45205688 786.72186279 C-134.01796129 785.46609491 -134.58480899 784.21075162 -135.15267944 782.95587158 C-135.93405708 781.22837491 -136.71125782 779.4989908 -137.48828125 777.76953125 C-137.92696533 776.79604736 -138.36564941 775.82256348 -138.81762695 774.81958008 C-140.03394844 771.91904387 -141.04334649 768.99518712 -142 766 C-149.53940792 770.13928278 -155.2683037 775.05506392 -161.1875 781.3125 C-163 783 -163 783 -165 783 C-165.21398437 783.53109375 -165.42796875 784.0621875 -165.6484375 784.609375 C-167.51344549 787.90817526 -170.04224242 790.50991708 -172.625 793.25 C-173.3984375 794.08144531 -173.3984375 794.08144531 -174.1875 794.9296875 C-175.45425035 796.2902712 -176.72657815 797.64565837 -178 799 C-178.66 798.67 -179.32 798.34 -180 798 C-180.59082031 796.06079102 -180.59082031 796.06079102 -181.078125 793.50390625 C-181.36006714 792.09057007 -181.36006714 792.09057007 -181.64770508 790.64868164 C-181.8464624 789.6302417 -182.04521973 788.61180176 -182.25 787.5625 C-186.54042835 766.90032159 -193.20267898 747.98906825 -206 731 C-206.70769531 730.00484375 -207.41539062 729.0096875 -208.14453125 727.984375 C-211.41202162 722.77486812 -211.41202162 722.77486812 -216 719 C-215.42110619 715.71245489 -214.45171589 714.06327505 -212.0625 711.75 C-211.53785156 711.22921875 -211.01320312 710.7084375 -210.47265625 710.171875 C-209 709 -209 709 -207 709 C-207 708.34 -207 707.68 -207 707 C-205.54711914 705.75073242 -205.54711914 705.75073242 -203.53515625 704.35546875 C-202.81779297 703.84306641 -202.10042969 703.33066406 -201.36132812 702.80273438 C-199.83689186 701.73161391 -198.3082669 700.66642863 -196.77539062 699.60742188 C-192.47159534 696.66828067 -192.47159534 696.66828067 -190.0390625 692.2421875 C-190.02617187 691.50226562 -190.01328125 690.76234375 -190 690 C-188.58958476 685.76875427 -185.71192147 684.25943046 -182 682 C-183.90620269 675.94594285 -186.12585899 670.15195982 -188.75 664.375 C-189.10143066 663.59286133 -189.45286133 662.81072266 -189.81494141 662.00488281 C-192.23662365 656.63331003 -194.71252333 651.28817776 -197.21826172 645.95532227 C-203.56826565 632.42482031 -209.67165643 618.77656793 -215.78076172 605.13598633 C-218.266556 599.59520941 -220.80524041 594.07991901 -223.35351562 588.56762695 C-240.55295875 551.29961653 -240.55295875 551.29961653 -248 533 C-248.36351562 532.16339844 -248.72703125 531.32679688 -249.1015625 530.46484375 C-250.25830827 527.29133687 -250.90680735 524.12529269 -251.5625 520.8125 C-251.81128906 519.58144531 -252.06007812 518.35039063 -252.31640625 517.08203125 C-253.95442745 507.82108589 -254.15875594 498.61955884 -254.13037109 489.23291016 C-254.12502718 487.13566806 -254.13033821 485.03864174 -254.13671875 482.94140625 C-254.14463348 471.6375876 -253.8464443 460.63803203 -250.8125 449.6875 C-250.59255371 448.87700195 -250.37260742 448.06650391 -250.14599609 447.23144531 C-247.31049286 437.11742187 -243.26214184 427.61343388 -238.796875 418.12109375 C-234.85285573 409.70918331 -230.98436409 401.26351364 -227.125 392.8125 C-226.59876038 391.66106003 -226.59876038 391.66106003 -226.06188965 390.48635864 C-221.75405132 381.06017907 -217.46732883 371.62531386 -213.2331543 362.16577148 C-210.18733541 355.37771878 -207.06335514 348.62649909 -203.9375 341.875 C-198.2524076 329.58789343 -192.71876053 317.24409369 -187.3125 304.83203125 C-179.09368824 285.99778142 -179.09368824 285.99778142 -175.5 279 C-170.66256939 269.57974039 -166.59102944 259.80264348 -162.35791016 250.10058594 C-157.79821579 239.68920181 -153.12798228 229.32867138 -148.25 219.0625 C-144.59311368 211.36423509 -141.10254898 203.59295058 -137.625 195.8125 C-137.20181488 194.86571884 -137.20181488 194.86571884 -136.77008057 193.89981079 C-136.20130296 192.6271927 -135.6325265 191.35457409 -135.06375122 190.08195496 C-134.64547562 189.14613335 -134.64547562 189.14613335 -134.21875 188.19140625 C-133.94126923 187.57054642 -133.66378845 186.94968658 -133.37789917 186.31001282 C-129.76122071 178.222798 -126.08627408 170.16228052 -122.41210938 162.10107422 C-120.80882855 158.58017638 -119.20882312 155.0577962 -117.609375 151.53515625 C-110.90256449 136.76558896 -104.18116428 122.00278038 -97.4375 107.25 C-97.10611023 106.52487213 -96.77472046 105.79974426 -96.43328857 105.05264282 C-95.47536458 102.95682938 -94.51708993 100.86117682 -93.55859375 98.765625 C-93.2542189 98.10005081 -92.94984406 97.43447662 -92.63624573 96.74873352 C-90.71819886 92.5582678 -88.783804 88.37564857 -86.84375 84.1953125 C-84.15555977 78.37786222 -81.59253186 72.51260135 -79.0625 66.625 C-75.80762027 59.09907411 -72.49587236 51.61942797 -68.97265625 44.21484375 C-67.32328447 40.73009407 -65.75145427 37.21353172 -64.18359375 33.69140625 C-63.67038574 32.55034424 -63.15717773 31.40928223 -62.62841797 30.23364258 C-61.61367043 27.97616946 -60.60818245 25.71450205 -59.61376953 23.44799805 C-53.60024734 10.15340741 -45.41788264 -1.53953799 -32 -8 C-20.02006196 -11.05870759 -9.33798344 -7.82056113 0 0 Z M-30.10009766 23.20239258 C-34.15288349 29.17012232 -36.71688069 35.93592303 -39.5 42.5625 C-40.44354648 44.77164322 -41.39135053 46.97892445 -42.33956909 49.18606567 C-42.96709482 50.64735035 -43.59301245 52.10932665 -44.21731567 53.57199097 C-46.81242184 59.63228262 -49.57111744 65.60634025 -52.38378906 71.56811523 C-54.67845237 76.44063519 -56.90346921 81.34381799 -59.125 86.25 C-59.94010417 88.046875 -60.75520833 89.84375 -61.5703125 91.640625 C-61.96379883 92.51009766 -62.35728516 93.37957031 -62.76269531 94.27539062 C-63.64290716 96.21366297 -64.52821561 98.14962433 -65.41699219 100.08398438 C-66.10390137 101.58155273 -66.10390137 101.58155273 -66.8046875 103.109375 C-67.22476074 104.02170898 -67.64483398 104.93404297 -68.07763672 105.87402344 C-69.06633491 107.7666568 -69.06633491 107.7666568 -69 109 C-38.31 109 -7.62 109 24 109 C22.54946201 103.92311704 21.01744199 99.55520895 18.75 94.875 C18.11570093 93.53915008 17.48158917 92.20321121 16.84765625 90.8671875 C16.53328613 90.20944336 16.21891602 89.55169922 15.89501953 88.87402344 C12.23843718 81.21774244 8.77263624 73.49538945 5.42163086 65.70166016 C1.43179681 56.42685482 -2.71531089 47.30714033 -7.32421875 38.32421875 C-8.71925689 35.55690533 -9.98724319 32.79229409 -11.1875 29.9375 C-13.62280763 24.42099879 -15.64130201 20.00463062 -21.375 17.5625 C-26.10901316 18.13384642 -27.1356812 19.6459571 -30.10009766 23.20239258 Z M-75 122 C-81.7853391 133.95697292 -87.25978384 146.40848751 -92.70996094 159.01904297 C-94.49600708 163.14614809 -96.30305655 167.26362863 -98.125 171.375 C-98.43791992 172.08180908 -98.75083984 172.78861816 -99.07324219 173.5168457 C-101.88591887 179.82657852 -104.84394087 186.0658603 -107.85595703 192.28271484 C-109.62303095 195.95852 -111.27581588 199.63420249 -112.75 203.4375 C-115.89724131 211.44304414 -119.63422543 219.19853069 -123.25 227 C-124.71522237 230.16589215 -126.17879545 233.33253979 -127.640625 236.5 C-128.00414062 237.28765747 -128.36765625 238.07531494 -128.7421875 238.88684082 C-131.5724251 245.03549423 -134.33343901 251.21311184 -137.07220459 257.4029541 C-140.49189606 265.12770776 -143.99349517 272.81436533 -147.5 280.5 C-151.54644043 289.37588065 -155.57869733 298.25542139 -159.5 307.1875 C-161.77588343 312.36943692 -164.18298161 317.45589062 -166.75 322.5 C-169.06783158 327.05735803 -171.10129984 331.59862344 -172.93359375 336.3671875 C-174.45420603 340.12137313 -176.20767998 343.7581174 -177.94140625 347.41772461 C-180.91048046 353.72778051 -183.70550112 360.11108286 -186.5 366.5 C-190.21426148 374.98029401 -194.00582238 383.40572597 -197.95703125 391.77832031 C-205.14913484 407.09857843 -212.3171314 422.44932492 -219 438 C-219.49242187 439.14210938 -219.98484375 440.28421875 -220.4921875 441.4609375 C-231.7381054 468.94356527 -231.47428769 504.1316478 -220.56884766 531.60546875 C-218.98786548 535.23840615 -217.35310154 538.84291936 -215.6875 542.4375 C-215.0997494 543.72553006 -214.51284322 545.01394576 -213.92675781 546.30273438 C-210.5686746 553.67017605 -207.1379681 561.00333121 -203.6796875 568.32421875 C-201.06717129 573.95695718 -198.68193657 579.69407227 -196.28222656 585.41992188 C-194.53777923 589.55125659 -192.72778568 593.61114277 -190.6953125 597.609375 C-187.05752905 604.77349536 -183.8077828 612.11709081 -180.5 619.4375 C-179.84262675 620.88875289 -179.18507564 622.33992524 -178.52734375 623.79101562 C-177.25773937 626.59247074 -175.98946984 629.3945241 -174.72216797 632.19702148 C-173.25174855 635.44719099 -171.77128261 638.69269349 -170.2890625 641.9375 C-168.77785874 645.25708592 -167.30488674 648.58934281 -165.8671875 651.94140625 C-165.53589844 652.70904297 -165.20460937 653.47667969 -164.86328125 654.26757812 C-164.19042843 655.83003279 -163.52400421 657.39526801 -162.86328125 658.96289062 C-162.53457031 659.71892578 -162.20585937 660.47496094 -161.8671875 661.25390625 C-161.43575439 662.26432983 -161.43575439 662.26432983 -160.99560547 663.29516602 C-159.97073724 665.33639813 -159.97073724 665.33639813 -157 667 C-155.97261719 666.48050781 -154.94523437 665.96101562 -153.88671875 665.42578125 C-132.37549823 654.58162601 -132.37549823 654.58162601 -121.01953125 650.9921875 C-118.71071072 650.23353237 -116.45636531 649.42728276 -114.1875 648.5625 C-87.36792924 638.42960731 -59.37185055 635.25289711 -31 633 C-31 627.39 -31 621.78 -31 616 C-33.26875 615.5875 -35.5375 615.175 -37.875 614.75 C-49.85376411 612.41825092 -61.53603302 607.5642407 -71.625 600.625 C-73.79548307 598.81177203 -73.79548307 598.81177203 -76 599 C-76.25652344 598.401875 -76.51304687 597.80375 -76.77734375 597.1875 C-78.12155759 594.78251677 -79.39799062 593.67913455 -81.5625 592 C-92.57678807 582.60193898 -99.48118262 569.55645214 -104 556 C-99.71 555.67 -95.42 555.34 -91 555 C-90.46375 556.134375 -89.9275 557.26875 -89.375 558.4375 C-86.98795359 563.23735231 -84.05331383 567.60322809 -81 572 C-78.3868797 568.08031955 -76.99621432 563.79274198 -75.47460938 559.36132812 C-74.27003518 556.13964545 -73.54893582 554.31404635 -70.5078125 552.57421875 C-67.68248118 551.92729709 -64.87078182 551.40057421 -62 551 C-65.46304111 556.31370298 -69.27075278 561.29072332 -73.171875 566.29296875 C-75.27982884 568.86994433 -75.27982884 568.86994433 -75 572 C-75.99 572.33 -76.98 572.66 -78 573 C-76.6659982 580.52043513 -69.34310719 586.02006461 -63.48828125 590.33984375 C-47.7526314 600.83851123 -27.67730631 605.03521699 -9.05859375 601.66015625 C-0.50210701 599.81335388 7.11679615 596.79173113 15 593 C15 592.34 15 591.68 15 591 C15.53625 590.7525 16.0725 590.505 16.625 590.25 C21.81931836 587.51614823 25.47701208 584.69731722 29 580 C30.33333333 578.66666667 31.66666667 577.33333333 33 576 C46.56890859 561.03940848 50.42697485 541.64084321 50 522 C54.29 520.02 58.58 518.04 63 516 C63.09270362 524.89954752 63.12887962 533.79609365 62.6875 542.6875 C62.62949219 543.92886719 62.57148438 545.17023438 62.51171875 546.44921875 C61.9437161 550.39055014 60.67232764 553.39967559 59 557 C58.44733899 558.66305332 57.90503179 560.3295968 57.375 562 C55.5965564 566.95766903 53.2464786 571.36529818 50.5625 575.875 C50.19108887 576.50535156 49.81967773 577.13570312 49.43701172 577.78515625 C47.03012746 581.72007118 44.36546855 584.80450461 41 588 C40.443125 588.78375 39.88625 589.5675 39.3125 590.375 C36.31654793 593.77581045 32.82931107 595.98407617 29.046875 598.44921875 C28.37140625 598.96097656 27.6959375 599.47273438 27 600 C27 600.66 27 601.32 27 602 C26.42145264 602.2875415 25.84290527 602.57508301 25.24682617 602.87133789 C23.85009675 603.57296563 22.4574718 604.2829059 21.0715332 605.00561523 C9.67388984 610.94472794 -0.22600743 614.36230865 -13 616 C-13 621.61 -13 627.22 -13 633 C-11.08767578 633.14695312 -11.08767578 633.14695312 -9.13671875 633.296875 C11.42431929 634.96922967 32.14199893 637.21281112 52 643 C53.09699219 643.31839844 54.19398438 643.63679687 55.32421875 643.96484375 C58.56326884 644.93773093 61.7825051 645.95814451 65 647 C66.84078125 647.5878125 66.84078125 647.5878125 68.71875 648.1875 C80.41295878 651.9643449 91.48568845 656.58216812 102.39428711 662.23364258 C106.19124244 664.18296593 109.89636676 665.76128718 114 667 C114.73203776 665.56395996 115.46039716 664.12604501 116.1875 662.6875 C116.79658203 661.48673828 116.79658203 661.48673828 117.41796875 660.26171875 C119.24052572 656.5041013 120.9644501 652.70743857 122.68579102 648.90258789 C123.90493954 646.2099524 125.13343875 643.52190868 126.3671875 640.8359375 C137.0322547 617.61282294 147.68704713 594.38205087 158 571 C161.82987332 562.32300258 165.66425726 553.65195255 169.6875 545.0625 C169.97471924 544.44769775 170.26193848 543.83289551 170.55786133 543.19946289 C171.83813317 540.46310852 173.12889594 537.73277671 174.44140625 535.01171875 C177.37954419 528.8109321 179.49002041 522.69453379 181 516 C181.16991455 515.36932617 181.3398291 514.73865234 181.51489258 514.08886719 C183.44868577 506.09160206 183.33719015 498.06695816 183.31567383 489.88916016 C183.31253271 487.40091305 183.3359695 484.91388054 183.36132812 482.42578125 C183.41671694 468.90562366 182.31624437 455.65818382 176.625 443.1875 C176.3168335 442.47650146 176.00866699 441.76550293 175.69116211 441.03295898 C174.81103526 439.01387142 173.90986408 437.00582471 173 435 C172.57589844 434.04867188 172.15179688 433.09734375 171.71484375 432.1171875 C170.9419638 430.40375195 170.16059512 428.69412192 169.37109375 426.98828125 C167.58361269 423.0924892 165.85743224 419.17050892 164.125 415.25 C161.02488804 408.24918166 157.83173607 401.29774193 154.578125 394.3671875 C151.69533662 388.21628753 148.88928098 382.0330748 146.16015625 375.8125 C143.02673933 368.68527321 139.86295542 361.61823651 136.3125 354.6875 C133.60967755 349.37925412 131.43213183 344.03295653 129.36328125 338.453125 C127.52526753 333.79752579 125.38552724 329.31237566 123.22729492 324.79858398 C120.52936209 319.15059269 117.93204653 313.46308941 115.375 307.75 C111.38708226 298.85186913 107.3763558 289.96647593 103.171875 281.16796875 C97.36197788 268.98312217 91.95843219 256.6327619 86.82739258 244.14648438 C83.76680488 236.70988412 80.4728489 229.40719357 77.0625 222.125 C76.49595176 220.91042318 75.9296327 219.69573943 75.36352539 218.48095703 C73.8783865 215.29559713 72.39037639 212.11158786 70.90148926 208.92797852 C69.42011873 205.75983146 67.94054368 202.59084634 66.4609375 199.421875 C66.0244136 198.48702019 66.0244136 198.48702019 65.57907104 197.53327942 C62.66447316 191.29105024 59.75165592 185.04799233 56.84106445 178.80389404 C56.01491359 177.0319863 55.18812668 175.26037515 54.36132812 173.48876953 C48.69028997 161.32588508 43.08290214 149.15529448 37.94018555 136.75756836 C35.92523628 131.94612268 33.68393175 127.47521656 31 123 C26.93875609 124.35374797 26.39684351 126.26258828 24.3125 129.9375 C23.68988281 131.01902344 23.06726563 132.10054687 22.42578125 133.21484375 C20.8481057 135.77523253 20.8481057 135.77523253 21 138 C20.34 138 19.68 138 19 138 C18.68289063 138.62003906 18.36578125 139.24007812 18.0390625 139.87890625 C14.72150823 146.17492775 11.02641501 152.06408511 7.03686523 157.94189453 C2.24854436 165.03471192 -2.17077725 172.3457763 -6.58129883 179.67749023 C-8 182 -8 182 -9.25190735 183.58410645 C-13.82499819 189.79517891 -13.67074792 195.5260158 -13.56640625 203.0390625 C-13.57204086 204.27868744 -13.57767548 205.51831238 -13.58348083 206.79550171 C-13.5998889 210.73905651 -13.58441377 214.68148465 -13.5625 218.625 C-13.5442327 222.57542392 -13.53681232 226.52545272 -13.55223083 230.47592163 C-13.56150181 232.92890658 -13.55237766 235.38204768 -13.52259827 237.83486938 C-13.5428884 244.15346145 -13.61123183 248.26080369 -18 253 C-20.04296875 254.06640625 -20.04296875 254.06640625 -22.1875 254.5625 C-28.83502562 256.42731742 -35.61603181 259.47238794 -40 265 C-40 265.66 -40 266.32 -40 267 C-40.99 267.33 -41.98 267.66 -43 268 C-44.66666667 270.91666667 -44.66666667 270.91666667 -46 274 C-46.33 274.66 -46.66 275.32 -47 276 C-47.81523315 282.56195862 -46.69351306 286.57515269 -43 292 C-38.8003108 291.4000444 -34.99523357 290.42052749 -31 289 C-26.73372045 287.57790682 -22.65611837 287.81569415 -18.1875 287.8125 C-17.29740234 287.80025391 -16.40730469 287.78800781 -15.49023438 287.77539062 C-10.55984605 287.76442608 -6.6246022 288.10751149 -2 290 C-1.07058594 290.31839844 -0.14117187 290.63679687 0.81640625 290.96484375 C2.17572266 291.44630859 2.17572266 291.44630859 3.5625 291.9375 C4.47128906 292.25589844 5.38007813 292.57429687 6.31640625 292.90234375 C13.31818857 295.76624598 13.31818857 295.76624598 15.3125 299.375 C16.0379091 302.14474383 16.36451089 304.15681504 16 307 C14.5 309.1875 14.5 309.1875 13 311 C13 311.66 13 312.32 13 313 C12.154375 313.2475 11.30875 313.495 10.4375 313.75 C6.93667083 314.8958133 6.93667083 314.8958133 3.8125 316.9375 C-6.73384679 323.03246665 -20.44481193 323.79566071 -32.23828125 321.3203125 C-33.86019146 320.81571821 -35.47063662 320.26943099 -37.0546875 319.65625 C-39.28951978 318.78689965 -39.28951978 318.78689965 -43 319 C-43.33 319.99 -43.66 320.98 -44 322 C-44.66 322 -45.32 322 -46 322 C-47.0390717 329.02782042 -47.0390717 329.02782042 -46 336 C-45.34 336 -44.68 336 -44 336 C-43.01 338.475 -43.01 338.475 -42 341 C-41.45472656 340.80664062 -40.90945312 340.61328125 -40.34765625 340.4140625 C-26.01006548 335.46330466 -12.73213333 334.22156394 2 339 C5.32857655 340.66240346 8.44372042 342.468638 11.57421875 344.4765625 C13.99341273 346.12933074 13.99341273 346.12933074 17 347 C16.67 347.99 16.34 348.98 16 350 C16.66 350 17.32 350 18 350 C18 351.65 18 353.3 18 355 C17.34 355.33 16.68 355.66 16 356 C16.33 356.66 16.66 357.32 17 358 C16.401875 358.2475 15.80375 358.495 15.1875 358.75 C12.90034992 359.83943028 12.90034992 359.83943028 11.734375 361.91015625 C9.48202837 364.62413248 7.32960364 365.4073123 4.0625 366.6875 C3.02222656 367.10386719 1.98195313 367.52023437 0.91015625 367.94921875 C-5.20337072 370.15665332 -10.72343404 370.21741492 -17.1875 370.25 C-18.69280273 370.2809375 -18.69280273 370.2809375 -20.22851562 370.3125 C-26.02540761 370.3426725 -30.7606456 369.7942309 -36.16577148 367.64746094 C-38.83819713 366.70412634 -40.44284823 366.79663446 -43 368 C-46.93684103 373.3928017 -46.79028373 378.5529485 -46 385 C-44.94419401 387.9937356 -43.67620848 390.27616121 -42 393 C-41.34 393 -40.68 393 -40 393 C-39.60748047 393.89525391 -39.60748047 393.89525391 -39.20703125 394.80859375 C-37.06343534 398.70036496 -33.87575313 400.92349299 -30 403 C-26.59284726 403.89055101 -23.24008377 404.54527749 -19.7578125 405.06640625 C-17 406 -17 406 -15.85351562 408.09033203 C-14.81410965 411.63370742 -14.67420614 414.79570993 -14.5859375 418.48828125 C-14.55688828 419.5430793 -14.55688828 419.5430793 -14.5272522 420.6191864 C-14.46779817 422.85017019 -14.42120951 425.08120654 -14.375 427.3125 C-14.33678863 428.83140186 -14.29773508 430.35028278 -14.2578125 431.86914062 C-14.16212584 435.57923467 -14.07796928 439.28948651 -14 443 C-11.16527654 444.47115751 -8.84583635 445.31611208 -5.6875 445.8125 C11.4712926 449.10253398 27.03282084 457.01123238 39 470 C39.33 470.66 39.66 471.32 40 472 C40.66 472 41.32 472 42 472 C42.66 473.32 43.32 474.64 44 476 C44.66 476 45.32 476 46 476 C46.0825 476.53625 46.165 477.0725 46.25 477.625 C47.2595351 480.82186114 49.13489518 483.23242511 51 486 C51 486.66 51 487.32 51 488 C47.04 488.99 43.08 489.98 39 491 C38.34 489.35 37.68 487.7 37 486 C24.74182194 469.58945737 6.3627529 460.16165455 -13.57421875 456.53125 C-15.72246249 456.26131361 -17.83738392 456.09438362 -20 456 C-20.68964844 455.96003906 -21.37929688 455.92007812 -22.08984375 455.87890625 C-39.12310183 455.35527987 -54.78445529 461.31321037 -67.515625 472.59765625 C-82.32212791 486.9152652 -91.08650929 501.60556501 -94 522 C-98.62 523.65 -103.24 525.3 -108 527 C-107.44901934 514.46518998 -104.42194607 504.03538557 -99.5625 492.5625 C-99.28647949 491.90016357 -99.01045898 491.23782715 -98.72607422 490.55541992 C-97.2492543 487.1970378 -95.69956907 484.48517331 -93.27734375 481.71484375 C-90.67866256 479.20752038 -90.67866256 479.20752038 -91 476 C-90.34 476 -89.68 476 -89 476 C-87.6459068 474.01399663 -86.31542376 472.01182457 -85 470 C-83.00418052 467.74665543 -81.27486612 466.16343391 -78.6875 464.625 C-75.94859308 462.96891674 -73.47894536 461.13095822 -70.9375 459.1875 C-62.30400802 452.89176322 -53.76298521 448.78196182 -43.30078125 446.54296875 C-41.04919709 446.22446088 -41.04919709 446.22446088 -40 445 C-37.66666667 444.66666667 -35.33333333 444.33333333 -33 444 C-30.74695699 441.74695699 -31.43346295 436.78832549 -31.25 433.75 C-31.18167969 432.89019531 -31.11335937 432.03039062 -31.04296875 431.14453125 C-30.82214573 427.46980971 -30.7775689 424.64355559 -31.98828125 421.140625 C-34.86371059 418.08094485 -38.13141308 416.6764501 -41.9375 415 C-47.19570634 412.67143338 -50.64831964 410.88618462 -54 406 C-54.66 405.401875 -55.32 404.80375 -56 404.1875 C-60.84118877 398.89244978 -63.12289071 392.40371283 -63.1328125 385.296875 C-63.13410156 384.39839844 -63.13539063 383.49992187 -63.13671875 382.57421875 C-63.13285156 381.64222656 -63.12898437 380.71023438 -63.125 379.75 C-63.12886719 378.83347656 -63.13273438 377.91695312 -63.13671875 376.97265625 C-63.12899169 371.55598841 -62.79250573 366.35884829 -62 361 C-61.34 361 -60.68 361 -60 361 C-57.90027326 357.58794404 -57.66916873 354.9699753 -58 351 C-58.89831016 348.69769234 -58.89831016 348.69769234 -60 347 C-60.66 347 -61.32 347 -62 347 C-62.99 341.555 -62.99 341.555 -64 336 C-64.66 336 -65.32 336 -66 336 C-65.71439202 325.28970065 -64.55598732 317.16371136 -59.125 307.75 C-57.70562009 305.01208409 -57.70562009 305.01208409 -58.625 302 C-59.5684419 299.94158131 -60.54986284 297.90027433 -61.5625 295.875 C-62.74453338 293.51093323 -63.50546952 291.57155851 -64 289 C-64.66 289 -65.32 289 -66 289 C-66 283.06 -66 277.12 -66 271 C-65.34 271 -64.68 271 -64 271 C-63.34 268.03 -62.68 265.06 -62 262 C-61.34 262 -60.68 262 -60 262 C-59.02920521 260.46347467 -59.02920521 260.46347467 -58.0625 258.5 C-53.37061472 250.6801912 -44.76185657 246.15421136 -36.875 242.0078125 C-34.76588627 240.91229334 -34.76588627 240.91229334 -32 239 C-31.48753138 236.86841777 -31.48753138 236.86841777 -31.48486328 234.36108398 C-31.43194626 232.91202919 -31.43194626 232.91202919 -31.37796021 231.43370056 C-31.34942459 229.85583519 -31.34942459 229.85583519 -31.3203125 228.24609375 C-31.29846893 227.1572438 -31.27662537 226.06839386 -31.25411987 224.94654846 C-31.21692833 222.62896154 -31.18897959 220.31121111 -31.16943359 217.9934082 C-31.12579151 214.50084217 -31.00723071 211.01602197 -30.88671875 207.52539062 C-30.62149208 193.12857733 -32.49156403 183.77336113 -41.74563599 172.56636047 C-43.38063651 170.52468823 -44.67030697 168.34654131 -45.9375 166.0625 C-49.29286817 160.34850538 -53.04725226 154.89339631 -56.77514648 149.41821289 C-59.50181771 145.38280965 -61.95148028 141.42086043 -64 137 C-64.66 137 -65.32 137 -66 137 C-66.0928125 136.45859375 -66.185625 135.9171875 -66.28125 135.359375 C-67.21618971 132.29033378 -68.76214436 129.94225177 -70.5 127.25 C-71.1290625 126.26515625 -71.758125 125.2803125 -72.40625 124.265625 C-73.19515625 123.14414063 -73.19515625 123.14414063 -74 122 C-74.33 122 -74.66 122 -75 122 Z M-55 124 C-54.20190089 127.19239645 -53.41362874 129.39297664 -51.9375 132.25 C-51.57527344 132.95640625 -51.21304688 133.6628125 -50.83984375 134.390625 C-50.56269531 134.92171875 -50.28554687 135.4528125 -50 136 C-49.34 136 -48.68 136 -48 136 C-47.84917969 137.09441406 -47.84917969 137.09441406 -47.6953125 138.2109375 C-46.91859346 141.32654084 -45.78711586 143.06122134 -43.875 145.625 C-40.48674881 150.27334461 -37.40521056 155.05255151 -34.3828125 159.9453125 C-33.92648438 160.62335938 -33.47015625 161.30140625 -33 162 C-32.67 162 -32.34 162 -32 162 C-32 149.46 -32 136.92 -32 124 C-39.59 124 -47.18 124 -55 124 Z M-13 124 C-13 137.2 -13 150.4 -13 164 C-9.72564431 160.72564431 -8.32760442 159.08671925 -6.375 155.1875 C-3.46626998 149.65942892 -0.12572492 144.53882318 3.39697266 139.39135742 C8.42214264 132.07367855 8.42214264 132.07367855 12 124 C3.75 124 -4.5 124 -13 124 Z M-22 304 C-22 304.66 -22 305.32 -22 306 C-20.02 305.67 -18.04 305.34 -16 305 C-16 304.67 -16 304.34 -16 304 C-17.98 304 -19.96 304 -22 304 Z M-22 354 C-21.01732141 355.20561184 -21.01732141 355.20561184 -19.15234375 355.09765625 C-17.1015625 355.06510417 -15.05078125 355.03255208 -13 355 C-13 354.34 -13 353.68 -13 353 C-16.77897651 351.9502843 -18.64919071 351.89023119 -22 354 Z M-92 655 C-93.77048686 655.45966991 -95.54129907 655.91808929 -97.3125 656.375 C-109.19741095 659.64379464 -120.95336491 663.49521708 -132 669 C-132.74765625 669.37253906 -133.4953125 669.74507812 -134.265625 670.12890625 C-135.56365424 670.78032463 -136.8586635 671.43785446 -138.1484375 672.10546875 C-140 673 -140 673 -142.42578125 673.95703125 C-147.17575213 675.88152628 -151.55950613 678.45439449 -156 681 C-157.01634521 681.58225342 -157.01634521 681.58225342 -158.05322266 682.17626953 C-160.25622578 683.45179603 -162.44184349 684.75333665 -164.625 686.0625 C-165.3363208 686.47371094 -166.0476416 686.88492188 -166.78051758 687.30859375 C-167.4433374 687.71335937 -168.10615723 688.118125 -168.7890625 688.53515625 C-169.38412598 688.889729 -169.97918945 689.24430176 -170.59228516 689.60961914 C-172.65391099 691.64585901 -172.8306971 693.13199319 -173 696 C-172.17850852 698.75373767 -172.17850852 698.75373767 -170.75390625 701.54296875 C-169.99762939 703.14168823 -169.99762939 703.14168823 -169.22607422 704.77270508 C-168.67709473 705.8995874 -168.12811523 707.02646973 -167.5625 708.1875 C-166.45081711 710.5281684 -165.34014457 712.86931692 -164.23046875 715.2109375 C-163.68052246 716.36174805 -163.13057617 717.51255859 -162.56396484 718.69824219 C-160.42912926 723.20519137 -158.38786402 727.75004048 -156.375 732.3125 C-156.05732666 733.02752686 -155.73965332 733.74255371 -155.41235352 734.47924805 C-153.87208361 737.96040185 -152.38538316 741.4542421 -151 745 C-146.65271328 744.10286574 -143.52693076 741.81211242 -139.9375 739.3125 C-133.80922228 735.13719806 -127.61311679 731.37178641 -121 728 C-120.07832031 727.525625 -119.15664062 727.05125 -118.20703125 726.5625 C-111.5625 723.1875 -111.5625 723.1875 -108 722 C-108 721.34 -108 720.68 -108 720 C-106.99582031 719.89171875 -105.99164063 719.7834375 -104.95703125 719.671875 C-100.9713037 719.10005755 -97.40180446 717.76012886 -93.6875 716.25 C-43.40073422 696.74479452 14.89124974 700.21491417 64.046875 721.5625 C77.38994211 728.05753796 90.01878409 735.98967482 102.00390625 744.71484375 C103.88459641 746.18044653 103.88459641 746.18044653 106 746 C114.2337395 728.3490151 114.2337395 728.3490151 121.64453125 710.34375 C123.53998533 705.66793245 125.7898157 701.196315 128.09375 696.70703125 C129.26168602 694.07500389 129.26168602 694.07500389 128.3203125 691.68359375 C127.06209014 689.73992415 127.06209014 689.73992415 124.375 689.25 C123.59125 689.1675 122.8075 689.085 122 689 C122 688.34 122 687.68 122 687 C121.01773438 686.47212891 121.01773438 686.47212891 120.015625 685.93359375 C114.9503253 683.19346693 109.94536159 680.38918179 105 677.4375 C95.16339845 671.6868714 84.77630783 667.69468186 74.11132812 663.78369141 C71.97846953 662.99200823 69.85571984 662.17746557 67.734375 661.35546875 C60.88547936 658.71284382 54.23050944 656.39536147 47 655 C46.67 654.67 46.34 654.34 46 654 C44.31847832 653.58407923 42.62402989 653.22016392 40.92578125 652.87890625 C39.87253662 652.6665332 38.81929199 652.45416016 37.73413086 652.23535156 C36.60499268 652.01331055 35.47585449 651.79126953 34.3125 651.5625 C33.16724854 651.3365918 32.02199707 651.11068359 30.84204102 650.87792969 C-9.51274237 643.01582797 -52.35200102 643.56575879 -92 655 Z M-189.4375 709.875 C-192.26459339 711.97555674 -195.06911722 714.04607815 -198 716 C-197.70724753 720.68403947 -195.44020065 723.24372173 -192.66796875 726.79296875 C-182.30204848 740.50899909 -175.97682968 756.71219376 -171 773 C-170.01 772.505 -170.01 772.505 -169 772 C-169 771.34 -169 770.68 -169 770 C-167.515 769.505 -167.515 769.505 -166 769 C-162.97819933 766.20483438 -160.42843088 763.3108549 -158 760 C-167.05479738 738.82420631 -167.05479738 738.82420631 -176.6328125 717.8828125 C-178.49631099 713.95349282 -180.25333366 709.98239926 -182 706 C-185.18122265 706 -186.93223582 708.00520124 -189.4375 709.875 Z M137 707 C136.764021 707.5576001 136.52804199 708.1152002 136.28491211 708.68969727 C131.39249476 720.23020682 126.36348644 731.67086023 121 743 C118.0601895 749.21046783 115.82691406 755.37051642 114 762 C114.48210937 762.39832031 114.96421875 762.79664063 115.4609375 763.20703125 C116.09257812 763.73683594 116.72421875 764.26664063 117.375 764.8125 C118.00148438 765.33457031 118.62796875 765.85664062 119.2734375 766.39453125 C121 768 121 768 123 771 C123.66 771 124.32 771 125 771 C125.33 771.99 125.66 772.98 126 774 C127.73015481 771.40476778 128.55429984 769.65331295 129.48046875 766.75390625 C132.78880659 756.69043592 136.30452152 747.95932573 142 739 C143.16322831 736.96819373 144.3097277 734.92669843 145.4375 732.875 C146.17806641 731.54082031 146.17806641 731.54082031 146.93359375 730.1796875 C148.14648999 728.10500985 148.14648999 728.10500985 148 726 C148.66 726 149.32 726 150 726 C151.32 723.69 152.64 721.38 154 719 C153.34 719 152.68 719 152 719 C151.505 717.515 151.505 717.515 151 716 C149.2704344 714.36902528 147.46782156 712.81432702 145.625 711.3125 C144.64789063 710.50425781 143.67078125 709.69601562 142.6640625 708.86328125 C140.13210566 706.71343013 140.13210566 706.71343013 137 707 Z M-53.3125 718.25 C-54.22056396 718.38567383 -55.12862793 718.52134766 -56.06420898 718.66113281 C-79.71348931 722.36279563 -102.23454503 731.26481302 -123 743 C-123 747.15872176 -121.21950697 750.36070878 -119.52734375 754.078125 C-119.1666127 754.88175476 -118.80588165 755.68538452 -118.43421936 756.5133667 C-117.27385105 759.0946244 -116.10567134 761.67226575 -114.9375 764.25 C-114.17724623 765.93988464 -113.41747549 767.62998668 -112.65820312 769.3203125 C-108.18866018 779.2531464 -103.6278673 789.14004019 -99 799 C-91.93187775 814.18503373 -85.09830156 829.4720902 -78.375 844.8125 C-74.90616386 852.72518683 -71.36581163 860.59075198 -67.67578125 868.40234375 C-65.73041337 872.5787629 -63.86106071 876.78551809 -62 881 C-59.36989942 886.94970557 -56.69081491 892.87067977 -53.92358398 898.75830078 C-51.47069023 903.97962549 -49.05136341 909.21601473 -46.63818359 914.45581055 C-45.07351874 917.85108965 -43.50373138 921.24396773 -41.93359375 924.63671875 C-40.15448011 928.48430268 -38.39339687 932.33858407 -36.66015625 936.20703125 C-36.13699829 937.35872803 -36.13699829 937.35872803 -35.60327148 938.53369141 C-34.98019775 939.9054799 -34.36548444 941.28111891 -33.76196289 942.66162109 C-31.62505183 947.32430812 -28.88814125 951.61489531 -25 955 C-22.99420753 955.82281921 -22.99420753 955.82281921 -21 956 C-20.34 955.67 -19.68 955.34 -19 955 C-19 954.34 -19 953.68 -19 953 C-18.01 952.67 -17.02 952.34 -16 952 C-14.59526338 949.7865664 -13.37461726 947.63907758 -12.1875 945.3125 C-11.8356665 944.63767578 -11.48383301 943.96285156 -11.12133789 943.26757812 C-8.309339 937.79309357 -5.85168598 932.19798893 -3.48828125 926.515625 C-1.95135832 922.88509839 -0.30948929 919.31346952 1.375 915.75 C4.00488126 910.18277289 6.52451341 904.5749827 9 898.9375 C11.44316226 893.38045718 13.99081577 887.90716521 16.75 882.5 C19.02682453 878.01798137 21.04993499 873.55994484 22.8515625 868.87109375 C26.94230026 858.64424936 31.66187597 848.65216664 36.35253906 838.68920898 C39.01420677 833.01696299 41.55147239 827.29194192 44.08544922 821.56176758 C46.98673448 815.00813511 49.97644851 808.49812999 53 802 C57.12572961 793.10464078 61.19217152 784.18356719 65.23925781 775.25219727 C68.30318214 768.50122679 71.43285575 761.78497545 74.625 755.09375 C76.06661198 752.0034102 76.06661198 752.0034102 77.0625 748.65625 C78 746 78 746 80 745 C70.90070885 737.45294087 60.66953497 733.00725427 49.546875 729.21875 C47.2499961 728.42951408 44.9668788 727.59850266 42.703125 726.71875 C32.69302332 722.86509583 22.54440096 720.82343492 12 719 C11.31276855 718.87995605 10.62553711 718.75991211 9.91748047 718.63623047 C2.03853861 717.29270569 -4.8616869 717 -13 717 C-13 741.42 -13 765.84 -13 791 C16.205 791.495 16.205 791.495 46 792 C45.09974084 796.50129582 43.90781044 799.60248285 41.9375 803.6875 C39.79237432 807.67743129 39.79237432 807.67743129 39 812 C-1.92 811.67 -42.84 811.34 -85 811 C-85 809.35 -85 807.7 -85 806 C-86.28689372 802.89755777 -86.28689372 802.89755777 -88 799.8125 C-91 794.18055556 -91 794.18055556 -91 792 C-71.2 791.67 -51.4 791.34 -31 791 C-31 766.58 -31 742.16 -31 717 C-38.75379048 717 -45.75620009 717.10315834 -53.3125 718.25 Z " fill="#046CB3" transform="translate(279,27)"/>
<path d="M0 0 C5.61 0 11.22 0 17 0 C17.33 9.24 17.66 18.48 18 28 C23.28 28 28.56 28 34 28 C34.99 25.525 34.99 25.525 36 23 C37.95825873 22.97305149 39.91662226 22.95362782 41.875 22.9375 C43.51082031 22.92009766 43.51082031 22.92009766 45.1796875 22.90234375 C48 23 48 23 50 24 C50 58.32 50 92.64 50 128 C45.05 128 40.1 128 35 128 C34.505 124.535 34.505 124.535 34 121 C28.72 121 23.44 121 18 121 C18.01160156 123.25199219 18.02320313 125.50398437 18.03515625 127.82421875 C18.04296418 130.01521667 18.04903106 132.20621301 18.05493164 134.3972168 C18.05994766 135.91512755 18.06676203 137.4330335 18.07543945 138.95092773 C18.08762497 141.13787016 18.09325572 143.32474846 18.09765625 145.51171875 C18.10289307 146.82615967 18.10812988 148.14060059 18.11352539 149.49487305 C18.01677552 152.48205125 17.70343764 155.10592611 17 158 C14.35409986 158.02684679 11.70846904 158.04676357 9.0625 158.0625 C8.30775391 158.07087891 7.55300781 158.07925781 6.77539062 158.08789062 C4.85005687 158.09652441 2.92464419 158.05224333 1 158 C-1.03123075 155.96876925 -0.25669618 151.82231134 -0.31640625 149.02734375 C-0.33718735 148.22970108 -0.35796844 147.43205841 -0.37937927 146.61024475 C-0.44496158 144.05275389 -0.50379967 141.4951572 -0.5625 138.9375 C-0.60567699 137.20767118 -0.64929101 135.47785321 -0.69335938 133.74804688 C-0.80147739 129.49880496 -0.90048535 125.24948711 -1 121 C-6.28 121 -11.56 121 -17 121 C-17.33 123.31 -17.66 125.62 -18 128 C-22.95 128 -27.9 128 -33 128 C-33.0231206 114.45735822 -33.04091364 100.9147211 -33.05181217 87.37206364 C-33.05704162 81.08437976 -33.06414039 74.79670934 -33.07543945 68.5090332 C-33.08626614 62.44662277 -33.09227637 56.38422531 -33.09487724 50.32180595 C-33.09673189 48.00323723 -33.10035325 45.68466926 -33.10573006 43.36610603 C-33.11293758 40.13085492 -33.11399106 36.89565817 -33.11352539 33.66040039 C-33.11712067 32.69151886 -33.12071594 31.72263733 -33.12442017 30.72439575 C-33.1230455 29.84794907 -33.12167084 28.97150238 -33.12025452 28.0684967 C-33.12117631 27.30248673 -33.1220981 26.53647676 -33.12304783 25.74725437 C-33 24 -33 24 -32 23 C-30.02287193 22.90099801 -28.04209962 22.87029227 -26.0625 22.875 C-24.44021484 22.87113281 -24.44021484 22.87113281 -22.78515625 22.8671875 C-20 23 -20 23 -18 24 C-17.67 25.32 -17.34 26.64 -17 28 C-11.72 28 -6.44 28 -1 28 C-0.67 18.76 -0.34 9.52 0 0 Z M-18 44 C-18.09915795 45.89698849 -18.12799314 47.79768787 -18.12939453 49.69726562 C-18.13254669 50.91522827 -18.13569885 52.13319092 -18.13894653 53.38806152 C-18.13715675 54.72745805 -18.1351058 56.06685424 -18.1328125 57.40625 C-18.1334856 58.7700604 -18.13445567 60.13387068 -18.13571167 61.49768066 C-18.13718838 64.35930521 -18.13503497 67.2208986 -18.13037109 70.08251953 C-18.12467381 73.75818614 -18.12795296 77.43377974 -18.13394356 81.10944366 C-18.13754991 83.92662104 -18.13641025 86.74378098 -18.13381577 89.56095886 C-18.1331467 90.91660063 -18.13397421 92.27224396 -18.13629532 93.62788391 C-18.13882301 95.51950044 -18.13429014 97.41112249 -18.12939453 99.30273438 C-18.12859894 100.38115601 -18.12780334 101.45957764 -18.12698364 102.57067871 C-18.27438546 104.9486918 -18.27438546 104.9486918 -17 106 C-14.3226862 106.09981214 -11.67695825 106.13879875 -9 106.125 C-7.87464844 106.13080078 -7.87464844 106.13080078 -6.7265625 106.13671875 C-3.06393883 106.47675541 -3.06393883 106.47675541 0 105 C0.09915795 103.10301151 0.12799314 101.20231213 0.12939453 99.30273438 C0.13254669 98.08477173 0.13569885 96.86680908 0.13894653 95.61193848 C0.13715675 94.27254195 0.1351058 92.93314576 0.1328125 91.59375 C0.1334856 90.2299396 0.13445567 88.86612932 0.13571167 87.50231934 C0.13718838 84.64069479 0.13503497 81.7791014 0.13037109 78.91748047 C0.12467381 75.24181386 0.12795296 71.56622026 0.13394356 67.89055634 C0.13754991 65.07337896 0.13641025 62.25621902 0.13381577 59.43904114 C0.1331467 58.08339937 0.13397421 56.72775604 0.13629532 55.37211609 C0.13882301 53.48049956 0.13429014 51.58887751 0.12939453 49.69726562 C0.12859894 48.61884399 0.12780334 47.54042236 0.12698364 46.42932129 C0.27438546 44.0513082 0.27438546 44.0513082 -1 43 C-3.6773138 42.90018786 -6.32304175 42.86120125 -9 42.875 C-9.75023437 42.87113281 -10.50046875 42.86726563 -11.2734375 42.86328125 C-14.93606117 42.52324459 -14.93606117 42.52324459 -18 44 Z M17 44 C16.90084205 45.89698849 16.87200686 47.79768787 16.87060547 49.69726562 C16.86745331 50.91522827 16.86430115 52.13319092 16.86105347 53.38806152 C16.86284325 54.72745805 16.8648942 56.06685424 16.8671875 57.40625 C16.8665144 58.7700604 16.86554433 60.13387068 16.86428833 61.49768066 C16.86281162 64.35930521 16.86496503 67.2208986 16.86962891 70.08251953 C16.87532619 73.75818614 16.87204704 77.43377974 16.86605644 81.10944366 C16.86245009 83.92662104 16.86358975 86.74378098 16.86618423 89.56095886 C16.8668533 90.91660063 16.86602579 92.27224396 16.86370468 93.62788391 C16.86117699 95.51950044 16.86570986 97.41112249 16.87060547 99.30273438 C16.87140106 100.38115601 16.87219666 101.45957764 16.87301636 102.57067871 C16.72561454 104.9486918 16.72561454 104.9486918 18 106 C20.69654854 106.07319621 23.36691458 106.09242537 26.0625 106.0625 C26.82111328 106.05798828 27.57972656 106.05347656 28.36132812 106.04882812 C30.24091871 106.0370068 32.12046899 106.01907078 34 106 C35.19960121 99.429174 35.12713266 92.94955626 35.09765625 86.28515625 C35.09553383 84.46883949 35.09553383 84.46883949 35.09336853 82.61582947 C35.08779026 78.76469406 35.0752417 74.91361771 35.0625 71.0625 C35.05748219 68.4446623 35.05291978 65.82682369 35.04882812 63.20898438 C35.03782794 56.80596958 35.02111144 50.40298901 35 44 C31.36449911 43.00693086 28.09057409 42.86653847 24.3125 42.875 C22.57419922 42.87113281 22.57419922 42.87113281 20.80078125 42.8671875 C18.09500844 42.68071827 18.09500844 42.68071827 17 44 Z " fill="#036CB3" transform="translate(108,431)"/>
<path d="M0 0 C1.0725 0.01417969 2.145 0.02835937 3.25 0.04296875 C4.3225 0.04941406 5.395 0.05585938 6.5 0.0625 C9.25 0.23046875 9.25 0.23046875 11.25 1.23046875 C11.25 2.88046875 11.25 4.53046875 11.25 6.23046875 C29.07 6.23046875 46.89 6.23046875 65.25 6.23046875 C65.25 4.58046875 65.25 2.93046875 65.25 1.23046875 C66.25 0.23046875 66.25 0.23046875 69.15625 0.09765625 C70.3421875 0.10023438 71.528125 0.1028125 72.75 0.10546875 C73.9359375 0.10289062 75.121875 0.1003125 76.34375 0.09765625 C79.25 0.23046875 79.25 0.23046875 80.25 1.23046875 C80.34660952 3.15408502 80.37187168 5.08129941 80.37025452 7.00733948 C80.37231651 8.8899649 80.37231651 8.8899649 80.37442017 10.81062317 C80.37088055 12.21432519 80.36724574 13.61802697 80.36352539 15.02172852 C80.36324353 16.48983763 80.36340124 17.95794688 80.3639679 19.42605591 C80.3642559 23.42381532 80.35835874 27.42154499 80.35139394 31.41929746 C80.34516085 35.59267608 80.34455664 39.76605531 80.34336853 43.93943787 C80.34025508 51.84779667 80.33204151 59.75614172 80.32201904 67.66449445 C80.31085832 76.66555369 80.30534756 85.66661357 80.30032361 94.667678 C80.28985891 113.18861606 80.2722592 131.7095413 80.25 150.23046875 C78.50093341 150.42648483 76.75068154 150.61194278 75 150.79296875 C74.02546875 150.89738281 73.0509375 151.00179687 72.046875 151.109375 C69.4868648 151.22021343 67.66851841 151.00784967 65.25 150.23046875 C65.25 147.92046875 65.25 145.61046875 65.25 143.23046875 C47.43 143.23046875 29.61 143.23046875 11.25 143.23046875 C11.25 145.54046875 11.25 147.85046875 11.25 150.23046875 C8.12645029 151.14787496 5.31313562 151.36507181 2.0625 151.35546875 C1.18207031 151.35804688 0.30164063 151.360625 -0.60546875 151.36328125 C-2.75 151.23046875 -2.75 151.23046875 -3.75 150.23046875 C-3.8579632 148.70775035 -3.89683104 147.18007822 -3.90821838 145.65357971 C-3.9180072 144.66325241 -3.92779602 143.67292511 -3.93788147 142.65258789 C-3.94363693 141.55624023 -3.9493924 140.45989258 -3.95532227 139.33032227 C-3.96522186 138.18200424 -3.97512146 137.03368622 -3.98532104 135.85057068 C-4.01711575 132.02019354 -4.04179796 128.18980454 -4.06640625 124.359375 C-4.08699443 121.68781636 -4.10795255 119.01626309 -4.12937927 116.3447113 C-4.17375096 110.71623761 -4.21447506 105.08774727 -4.25268555 99.45922852 C-4.30593549 91.61664407 -4.36584439 83.77412146 -4.42708123 75.93159592 C-4.46981785 70.42453059 -4.51088936 64.9174526 -4.5516727 59.4103725 C-4.56616444 57.4545103 -4.58076596 55.49864892 -4.59536934 53.54278755 C-4.64858729 46.28867704 -4.69190176 39.03460219 -4.72728348 31.78038406 C-4.75091206 28.08794154 -4.79068126 24.39587198 -4.83151245 20.70358276 C-4.85015712 18.3127263 -4.8684903 15.92186738 -4.88647461 13.53100586 C-4.90254289 12.41998033 -4.91861116 11.30895479 -4.93516636 10.16426182 C-4.94064456 9.14877231 -4.94612276 8.13328279 -4.95176697 7.08702087 C-4.96107207 6.19403258 -4.97037718 5.30104429 -4.97996426 4.38099575 C-4.60789034 0.90152018 -3.37183332 0.28258262 0 0 Z M12.25 20.23046875 C11.05419345 21.20725307 11.05419345 21.20725307 11.12695217 23.02457523 C11.12787396 23.81270823 11.12879576 24.60084124 11.12974548 25.41285706 C11.12837082 26.3145462 11.12699615 27.21623535 11.12557983 28.14524841 C11.12917511 29.14218216 11.13277039 30.13911591 11.13647461 31.16625977 C11.13632858 32.21003784 11.13618256 33.25381592 11.1360321 34.32922363 C11.13673174 37.79762818 11.14452647 41.26597978 11.15234375 44.734375 C11.15420775 47.13191193 11.15563174 49.52944925 11.15663147 51.92698669 C11.16045806 58.25142459 11.17028954 64.57583969 11.18133545 70.90026855 C11.1933404 78.48098021 11.19795114 86.06169947 11.20378876 93.64241791 C11.21350122 105.17178407 11.23265681 116.70110016 11.25 128.23046875 C29.07 128.23046875 46.89 128.23046875 65.25 128.23046875 C65.25 92.92046875 65.25 57.61046875 65.25 21.23046875 C47.76 20.90046875 30.27 20.57046875 12.25 20.23046875 Z " fill="#076DB3" transform="translate(355.75,438.76953125)"/>
<path d="M0 0 C15.18 0 30.36 0 46 0 C46 4.62 46 9.24 46 14 C45 15 45 15 41.83984375 15.09765625 C39.90818359 15.08025391 39.90818359 15.08025391 37.9375 15.0625 C36.64714844 15.05347656 35.35679687 15.04445313 34.02734375 15.03515625 C33.02832031 15.02355469 32.02929688 15.01195312 31 15 C31 18.96 31 22.92 31 27 C35.95 27 40.9 27 46 27 C46.09765625 37.83984375 46.09765625 37.83984375 46 41 C45 42 45 42 41.83984375 42.09765625 C40.55207031 42.08605469 39.26429688 42.07445312 37.9375 42.0625 C36.64714844 42.05347656 35.35679687 42.04445313 34.02734375 42.03515625 C33.02832031 42.02355469 32.02929688 42.01195312 31 42 C31 43.98 31 45.96 31 48 C34.3 48 37.6 48 41 48 C42.0314717 51.26782194 43.05050117 54.53865014 44.0625 57.8125 C44.35705078 58.74126953 44.65160156 59.67003906 44.95507812 60.62695312 C45.22900391 61.51962891 45.50292969 62.41230469 45.78515625 63.33203125 C46.04176025 64.15421143 46.29836426 64.9763916 46.56274414 65.82348633 C47 68 47 68 46 71 C42.37 71 38.74 71 35 71 C34.01 68.03 33.02 65.06 32 62 C31.67 66.62 31.34 71.24 31 76 C32.98 75.505 32.98 75.505 35 75 C38.83967767 74.74942603 42.31449333 74.77149778 46 76 C46 80.62 46 85.24 46 90 C30.82 90 15.64 90 0 90 C-0.76743893 85.39536641 -1.35418263 81.60437421 -1 77 C2 75 2 75 15 75 C15 64.11 15 53.22 15 42 C10.05 42 5.1 42 0 42 C-1.65206638 37.04380087 -0.49932248 32.1596656 0 27 C4.95 27 9.9 27 15 27 C15 23.04 15 19.08 15 15 C10.38 15 5.76 15 1 15 C-1 11 -1 11 0 0 Z " fill="#066DB3" transform="translate(371,468)"/>
<path d="M0 0 C0.56430412 6.48949733 -1.33259321 11.13908888 -4 17 C-4.30035156 17.70511719 -4.60070312 18.41023437 -4.91015625 19.13671875 C-10.20769599 30.80965263 -20.42120248 39.00119451 -32.18774414 43.64208984 C-39.53864095 46.39392505 -46.28230097 48.13020612 -54.18896484 48.11352539 C-55.38975677 48.11344986 -56.59054871 48.11337433 -57.82772827 48.11329651 C-59.10918732 48.10813522 -60.39064636 48.10297394 -61.7109375 48.09765625 C-63.04757636 48.09578895 -64.38421592 48.09436652 -65.72085571 48.09336853 C-69.22249269 48.08956795 -72.72408756 48.07975891 -76.22570801 48.06866455 C-79.80541413 48.05839732 -83.38512712 48.05385957 -86.96484375 48.04882812 C-93.97657969 48.03813422 -100.98828782 48.02108764 -108 48 C-107.54668962 46.4138861 -107.08733226 44.82949974 -106.62548828 43.24584961 C-106.37034454 42.36336044 -106.11520081 41.48087128 -105.85232544 40.57164001 C-104.64641003 36.9331468 -102.87931168 33.81124695 -100.875 30.5625 C-98.07551315 25.96082992 -98.07551315 25.96082992 -96 21 C-91.21257769 18.60628885 -84.89286314 18.90377591 -79.625 18.6875 C-78.40683594 18.63142578 -78.40683594 18.63142578 -77.1640625 18.57421875 C-75 19 -75 19 -73.2109375 20.89453125 C-72 23 -72 23 -72 25 C-61.71163184 29.17096007 -50.56266239 29.74555204 -40 25.9375 C-30.94694564 21.92650971 -24.06479738 16.67914465 -19.8671875 7.53125 C-17.35568602 4.12653669 -14.34426619 3.03822548 -10.5 1.625 C-9.82324219 1.35300781 -9.14648438 1.08101562 -8.44921875 0.80078125 C-3.4109933 -1.13699777 -3.4109933 -1.13699777 0 0 Z " fill="#036BB3" transform="translate(319,557)"/>
<path d="M0 0 C1.703125 1.26953125 1.703125 1.26953125 3.078125 4.20703125 C2.55935447 8.44365723 0.9545187 9.57156626 -2.296875 12.26953125 C-3.204375 13.09453125 -4.111875 13.91953125 -5.046875 14.76953125 C-8.04412016 17.21425394 -11.2446935 19.0245841 -14.65625 20.83203125 C-16.55024497 21.86308177 -18.41210609 22.95401171 -20.25 24.08203125 C-41.27362615 36.83570019 -66.02535186 43.28243584 -90.05078125 47.6640625 C-92.42919556 48.10768972 -94.79175417 48.63869348 -97.140625 49.21875 C-104.40281043 50.84754466 -111.84419668 51.47601736 -119.234375 52.26953125 C-120.02634277 52.35568695 -120.81831055 52.44184265 -121.63427734 52.53060913 C-132.01167323 53.6567865 -142.39387673 54.71970296 -152.796875 55.58203125 C-154.29528931 55.71448242 -154.29528931 55.71448242 -155.82397461 55.84960938 C-166.09239035 56.63674139 -175.29232998 56.6376254 -184.296875 51.26953125 C-184.86900995 48.00018867 -184.77374673 45.96710395 -182.87890625 43.1953125 C-177.61766298 37.12637303 -174.40716087 34.30452589 -166.296875 33.26953125 C-162.9925993 32.31320731 -159.77790962 31.09743635 -156.55078125 29.91015625 C-151.60825893 28.16573661 -151.60825893 28.16573661 -148.296875 29.26953125 C-149.204375 30.01203125 -150.111875 30.75453125 -151.046875 31.51953125 C-154.87339488 34.68658361 -154.87339488 34.68658361 -158.296875 38.26953125 C-158.296875 39.58953125 -158.296875 40.90953125 -158.296875 42.26953125 C-155.21575592 44.05627868 -152.97704435 44.52568039 -149.4296875 44.53515625 C-147.99326904 44.54119873 -147.99326904 44.54119873 -146.52783203 44.54736328 C-145.50286621 44.53817871 -144.47790039 44.52899414 -143.421875 44.51953125 C-142.36210449 44.51421387 -141.30233398 44.50889648 -140.21044922 44.50341797 C-127.01556221 44.34864498 -113.8211185 43.50683026 -100.89111328 40.79150391 C-97.17676212 40.04415939 -93.44005842 39.46744502 -89.69824219 38.87597656 C-73.24089671 36.2578832 -58.28481784 32.56636969 -42.890625 26.15625 C-39.29508823 24.65932966 -35.67687591 23.32469983 -31.984375 22.08203125 C-27.17165483 20.3767367 -21.68451061 18.04480247 -19.296875 13.26953125 C-18.306875 12.86734375 -18.306875 12.86734375 -17.296875 12.45703125 C-15.01213423 11.40997927 -15.01213423 11.40997927 -14.546875 8.64453125 C-14.464375 7.86078125 -14.381875 7.07703125 -14.296875 6.26953125 C-19.00661149 4.50338007 -23.32770864 3.78358294 -28.296875 3.26953125 C-21.50605471 -5.11912911 -8.81625985 -4.48741284 0 0 Z " fill="#EC1B23" transform="translate(347.296875,521.73046875)"/>
<path d="M0 0 C33.99 0 67.98 0 103 0 C102 6 102 6 95 20 C66.29 20 37.58 20 8 20 C5 14 5 14 5 10 C4.34 10 3.68 10 3 10 C0 3.375 0 3.375 0 0 Z " fill="#016BB2" transform="translate(205,858)"/>
<path d="M0 0 C5.0087754 -0.21985083 8.55953358 0.727312 12.921875 3.16015625 C16.39522667 6.54210393 17.82242076 9.28689842 17.921875 14.16015625 C15.99768365 19.50513222 12.98688696 22.62765027 7.921875 25.16015625 C8.623125 25.65644531 9.324375 26.15273438 10.046875 26.6640625 C15.95004441 30.89092429 21.5697061 35.25272344 26.921875 40.16015625 C24.39983743 43.26751312 22.14247393 43.96510322 18.234375 44.59765625 C10.42629676 45.13161676 6.1317698 41.40927361 0.47973633 36.56811523 C-5.1299724 31.76922632 -8.60677884 31.16015625 -16.078125 31.16015625 C-15.088125 36.77015625 -14.098125 42.38015625 -13.078125 48.16015625 C-18.703125 51.53515625 -18.703125 51.53515625 -22.890625 51.34765625 C-23.68082031 51.32058594 -24.47101563 51.29351563 -25.28515625 51.265625 C-25.87683594 51.23082031 -26.46851563 51.19601562 -27.078125 51.16015625 C-29.5809596 41.23775107 -31.65980252 31.36308851 -33.1262207 21.23120117 C-33.65996686 17.06956585 -33.65996686 17.06956585 -35.078125 13.16015625 C-35.118117 11.16055613 -35.12159299 9.15968383 -35.078125 7.16015625 C-23.6180676 3.43695788 -12.00908503 0.92551219 0 0 Z M-11.390625 11.59765625 C-12.13119141 11.74525391 -12.87175781 11.89285156 -13.63476562 12.04492188 C-15.45094143 12.40815704 -17.26478911 12.78299943 -19.078125 13.16015625 C-19.34745021 17.81068497 -19.34745021 17.81068497 -18.078125 22.16015625 C-15.84792773 21.87647757 -13.61899046 21.58288237 -11.390625 21.28515625 C-10.14925781 21.12273438 -8.90789062 20.9603125 -7.62890625 20.79296875 C-3.31787012 20.02466528 -0.2017242 19.28375545 2.921875 16.16015625 C2.60146103 13.55735057 2.60146103 13.55735057 1.921875 11.16015625 C-2.81969891 9.74797152 -6.67652296 10.60765269 -11.390625 11.59765625 Z " fill="#096EB4" transform="translate(226.078125,680.83984375)"/>
<path d="M0 0 C2.93359375 0.06640625 2.93359375 0.06640625 6.4375 0.5625 C7.59121094 0.70816406 8.74492187 0.85382812 9.93359375 1.00390625 C13 2 13 2 14.54541016 4.14355469 C16.14027428 7.27546309 17.25732152 10.35515084 18.33984375 13.69921875 C18.54807266 14.33430862 18.75630157 14.9693985 18.97084045 15.62373352 C19.63219029 17.64315363 20.28543669 19.66506412 20.9375 21.6875 C21.79658592 24.3386231 22.6600395 26.98827316 23.52734375 29.63671875 C23.73555756 30.27543915 23.94377136 30.91415955 24.15829468 31.57223511 C25.66325876 36.13272562 27.37726035 40.56217168 29.30297852 44.96020508 C30 47 30 47 30 51 C24.93345351 51.20679782 20.70454517 50.99038449 16 49 C13.52394024 45.32584681 13 43.46306794 13 39 C9.44430842 38.34989054 5.88093228 37.76319811 2.3125 37.1875 C1.30509766 37.00251953 0.29769531 36.81753906 -0.74023438 36.62695312 C-6.79210656 35.55440301 -6.79210656 35.55440301 -12.08203125 38.23828125 C-13.40685099 40.14591375 -14.71168457 42.06752685 -16 44 C-20.29 43.67 -24.58 43.34 -29 43 C-30 39 -30 39 -29.05053711 37.08740234 C-28.2965564 36.09667725 -28.2965564 36.09667725 -27.52734375 35.0859375 C-26.96370117 34.33304443 -26.40005859 33.58015137 -25.81933594 32.80444336 C-25.19833008 32.00272705 -24.57732422 31.20101074 -23.9375 30.375 C-23.31004883 29.54556885 -22.68259766 28.7161377 -22.03613281 27.86157227 C-20.03820551 25.2299072 -18.02111594 22.61388651 -16 20 C-15.33693848 19.13648926 -14.67387695 18.27297852 -13.99072266 17.38330078 C-2.76462602 2.76462602 -2.76462602 2.76462602 0 0 Z M3 15 C1.91194151 16.40271324 0.87903909 17.8484709 -0.125 19.3125 C-0.96417969 20.51326172 -0.96417969 20.51326172 -1.8203125 21.73828125 C-2.40425781 22.85783203 -2.40425781 22.85783203 -3 24 C-2.67 24.99 -2.34 25.98 -2 27 C1.3 27.33 4.6 27.66 8 28 C7.71125 26.5975 7.4225 25.195 7.125 23.75 C6.88136719 22.56664062 6.88136719 22.56664062 6.6328125 21.359375 C6.00849925 19.03168856 5.15161458 17.10968048 4 15 C3.67 15 3.34 15 3 15 Z " fill="#096EB3" transform="translate(289,681)"/>
<path d="M0 0 C5.57009197 5.46455339 6.89152032 9.84768363 7.375 17.5 C2.87505541 17.29841289 -1.33147813 16.90973315 -5.625 15.5 C-7.26288995 13.27994227 -7.87643888 11.32249458 -8.6875 8.69921875 C-10.11743105 5.34483883 -12.26048412 4.41443209 -15.5390625 3.0859375 C-19.82634959 1.88164337 -23.15438817 1.9527956 -27.3125 3.5 C-31.10668179 6.78145452 -33.05602974 10.6814899 -34.046875 15.58984375 C-34.31130537 19.41673883 -33.6671776 21.96405599 -31.375 24.9375 C-27.17232307 28.85363078 -23.29547106 28.76556696 -17.73828125 28.73828125 C-15.01493242 28.43121234 -13.67711566 27.24809853 -11.625 25.5 C-8.21915593 25.70641479 -6.90561471 27.1281607 -4.625 29.5 C-2.97894174 30.53357147 -1.31536558 31.54060332 0.375 32.5 C-0.82629744 36.23736983 -3.09205222 37.8957924 -6.5234375 39.66796875 C-15.29780754 43.14183644 -23.1525917 40.89331372 -31.625 37.5 C-38.67200648 34.37326099 -43.55756674 28.99166405 -47.625 22.5 C-49.32294032 16.35911586 -49.68114845 10.07138248 -46.875 4.25 C-42.64334332 -3.15539919 -38.25750013 -6.57309206 -30.25 -9.3125 C-19.46365396 -10.08295329 -8.33977939 -7.02135838 0 0 Z " fill="#0A6EB4" transform="translate(375.625,706.5)"/>
<path d="M0 0 C3.46875 1.85546875 3.46875 1.85546875 6 4 C6 7 6 7 4.4609375 8.640625 C-1.20980411 13.01580392 -1.20980411 13.01580392 -5.125 12.9375 C-6.07375 12.628125 -7.0225 12.31875 -8 12 C-13.18983312 10.50071488 -16.29997914 11.44329776 -21.0078125 13.7734375 C-23.83138276 15.51187096 -24.92660183 16.85136538 -26 20 C-26.80195108 26.11487697 -25.73426754 29.27894062 -22.2890625 34.3359375 C-20.95938288 36.12459881 -20.95938288 36.12459881 -19 38 C-14.21101939 38.59380275 -9.56003867 38.5525137 -5 36.9375 C-1.64505362 33.68739569 -0.40456156 29.65502455 0.6875 25.1875 C2.26055708 22.5657382 2.95038096 22.43432579 5.8125 21.625 C9.12645265 20.97307489 11.73147612 20.97858629 15 22 C14.76120669 29.52198931 13.08687966 34.36846454 8 40 C4.85575906 42.70856148 1.5880583 44.92151725 -2 47 C-2.62519531 47.36222656 -3.25039062 47.72445312 -3.89453125 48.09765625 C-10.96921799 51.41150734 -20.0080031 51.02959936 -27.5 49.484375 C-33.84009984 46.95824147 -37.31071803 41.00036323 -40 35 C-41.4567336 29.07908279 -41.72521336 23.58019879 -39 18 C-36.98997721 14.69318831 -35.02004115 11.47094276 -32 9 C-31.34 9 -30.68 9 -30 9 C-30 8.34 -30 7.68 -30 7 C-20.18936863 0.99098828 -11.66202689 -2.06620694 0 0 Z " fill="#0A6FB4" transform="translate(172,697)"/>
<path d="M0 0 C-1.33052708 3.99158125 -3.73728066 4.80933879 -7.25 6.6875 C-8.53214883 7.39812027 -9.81337881 8.11040056 -11.09375 8.82421875 C-12.07214844 9.3663501 -12.07214844 9.3663501 -13.0703125 9.91943359 C-26.53194383 17.16334252 -26.53194383 17.16334252 -38 27 C-37.98324219 27.75925781 -37.96648437 28.51851562 -37.94921875 29.30078125 C-38.01657059 32.88079076 -39.21664351 34.69556888 -41.37304688 37.49267578 C-44.26826489 40.17501012 -47.43602142 40.49928036 -51.25 40.9375 C-52.3790979 41.10149292 -52.3790979 41.10149292 -53.53100586 41.26879883 C-58.71225292 41.97734066 -63.77175996 42.28517673 -69 42 C-66.55356262 35.11939486 -62.36253066 29.79690358 -58 24 C-56.99493149 22.6078118 -55.99399641 21.21261494 -55 19.8125 C-54.34 18.884375 -53.68 17.95625 -53 17 C-54.01835937 17.01160156 -55.03671875 17.02320313 -56.0859375 17.03515625 C-64.02488014 17.09766761 -71.94412457 17.00686898 -79.875 16.625 C-81.02427979 16.5787146 -81.02427979 16.5787146 -82.19677734 16.53149414 C-85.92752164 16.32963947 -87.82587122 16.11608585 -91 14 C-87.44460986 11.62973991 -84.4517542 11.38681408 -80.3203125 10.95703125 C-78.69276996 10.77190209 -77.06524817 10.58659048 -75.43774414 10.40112305 C-74.57279327 10.30552094 -73.70784241 10.20991882 -72.81668091 10.11141968 C-53.82510359 8.00234495 -34.9667742 5.25092596 -16.10009766 2.2355957 C-15.17008438 2.0870816 -14.24007111 1.9385675 -13.28187561 1.78555298 C-11.53435106 1.50555248 -9.7871302 1.22364782 -8.04026794 0.93954468 C-2.21544905 0 -2.21544905 0 0 0 Z " fill="#066DB3" transform="translate(286,521)"/>
<path d="M0 0 C21.78 0 43.56 0 66 0 C65.13584266 5.18494405 63.87263913 8.78161683 61.5 13.3125 C61.17902344 13.94478516 60.85804688 14.57707031 60.52734375 15.22851562 C58.16976305 19.83023695 58.16976305 19.83023695 57 21 C55.48199156 21.11917672 53.95854407 21.17008262 52.43603516 21.19287109 C50.9791478 21.21696548 50.9791478 21.21696548 49.49282837 21.24154663 C45.0466567 21.28580463 40.60063704 21.3270564 36.15429688 21.35009766 C33.80491238 21.36667466 31.45557867 21.39398727 29.10644531 21.43212891 C25.72954999 21.48671746 22.35383879 21.50874398 18.9765625 21.5234375 C17.92336823 21.54610687 16.87017395 21.56877625 15.7850647 21.59213257 C13.09777646 21.58429791 10.63272015 21.53850078 8 21 C5.91650391 18.66894531 5.91650391 18.66894531 5 16 C4.18789062 14.40285156 4.18789062 14.40285156 3.359375 12.7734375 C2.82828125 11.65195312 2.2971875 10.53046875 1.75 9.375 C1.20859375 8.24835937 0.6671875 7.12171875 0.109375 5.9609375 C-1 3 -1 3 0 0 Z " fill="#056DB3" transform="translate(224,897)"/>
<path d="M0 0 C3.54046332 2.8115444 6.80160663 5.80706464 10 9 C10.67289062 9.66128906 11.34578125 10.32257812 12.0390625 11.00390625 C16.98606838 16.21405075 21 22.62142419 21 30 C16.05 31.98 11.1 33.96 6 36 C4.829298 33.65859599 4.79451478 31.98229878 4.625 29.375 C3.50973783 18.25424298 -1.51148313 11.80624793 -9.8203125 4.37109375 C-12.8380324 2.47285059 -16.06266978 1.44386118 -19.4375 0.375 C-20.09298828 0.1584375 -20.74847656 -0.058125 -21.42382812 -0.28125 C-26.84040083 -2.04150031 -31.83305005 -3.09402989 -37.51953125 -3.31640625 C-38.54111328 -3.35830078 -39.56269531 -3.40019531 -40.61523438 -3.44335938 C-41.67033203 -3.48267578 -42.72542969 -3.52199219 -43.8125 -3.5625 C-44.88693359 -3.60568359 -45.96136719 -3.64886719 -47.06835938 -3.69335938 C-49.71212082 -3.79910983 -52.3559711 -3.90120233 -55 -4 C-55 -4.99 -55 -5.98 -55 -7 C-37.14876218 -11.76033009 -15.4622671 -10.71181155 0 0 Z " fill="#086EB4" transform="translate(296,510)"/>
<path d="M0 0 C3.55247432 0.87379409 4.94828114 2.4927342 6.9375 5.4765625 C7.806049 9.35813103 7.51567178 12.47104635 5.5 15.9765625 C1.66855064 18.21936213 -1.73849223 18.3536744 -6.0625 17.4765625 C-9.125 15.4140625 -9.125 15.4140625 -11.0625 12.4765625 C-11.8503128 8.0648108 -11.59225133 6.25463476 -9.0625 2.5390625 C-5.72726514 0.24608853 -3.96242945 -0.28517485 0 0 Z " fill="#0A6EB4" transform="translate(227.0625,500.5234375)"/>
<path d="M0 0 C0.66 0.99 1.32 1.98 2 3 C1.35330586 4.34313399 0.68096422 5.67391178 0 7 C-0.391875 7.886875 -0.78375 8.77375 -1.1875 9.6875 C-3 12 -3 12 -6.6875 12.8125 C-7.780625 12.874375 -8.87375 12.93625 -10 13 C-8.64763423 10.06120516 -7.10057341 7.70767089 -5 5.25 C-4.2265625 4.32960938 -4.2265625 4.32960938 -3.4375 3.390625 C-2 2 -2 2 0 2 C0 1.34 0 0.68 0 0 Z " fill="#1072B6" transform="translate(246,548)"/>
<path d="M0 0 C7.59 0 15.18 0 23 0 C23 0.33 23 0.66 23 1 C22.40461426 1.01981934 21.80922852 1.03963867 21.19580078 1.06005859 C18.50507847 1.15516126 15.81514852 1.26489842 13.125 1.375 C12.18785156 1.4059375 11.25070313 1.436875 10.28515625 1.46875 C8.94130859 1.52675781 8.94130859 1.52675781 7.5703125 1.5859375 C6.74289551 1.6173584 5.91547852 1.6487793 5.06298828 1.68115234 C2.78013915 1.82599137 2.78013915 1.82599137 1 4 C0.67 2.68 0.34 1.36 0 0 Z " fill="#1176B9" transform="translate(205,858)"/>
<path d="M0 0 C0 3 0 3 -1.4609375 4.82421875 C-2.09257812 5.43910156 -2.72421875 6.05398438 -3.375 6.6875 C-4.00148437 7.31011719 -4.62796875 7.93273437 -5.2734375 8.57421875 C-7 10 -7 10 -9 10 C-7.61811547 6.78956118 -6.07578097 4.95063635 -3.375 2.75 C-2.74335938 2.22921875 -2.11171875 1.7084375 -1.4609375 1.171875 C-0.73777344 0.59179688 -0.73777344 0.59179688 0 0 Z " fill="#247ABB" transform="translate(230,275)"/>
<path d="M0 0 C0.66 0.33 1.32 0.66 2 1 C-0.64 3.64 -3.28 6.28 -6 9 C-6 5.06368636 -4.57142871 3.87394974 -2 1 C-1.34 0.67 -0.68 0.34 0 0 Z " fill="#297FBE" transform="translate(337,701)"/>
<path d="" fill="#7694C9" transform="translate(0,0)"/>
</svg>
