<svg width="940" height="1440" viewBox="0 0 94 144" fill="none" xmlns="http://www.w3.org/2000/svg">
<g clip-path="url(#clip0_378_159)">
<rect x="9.00001" y="30" width="76" height="7" fill="#5B5B5B"/>
<rect x="9.00001" y="40" width="76" height="7" fill="#5B5B5B"/>
<rect x="9.00001" y="63" width="76" height="7" fill="#5B5B5B"/>
<rect x="9.00001" y="89" width="76" height="7" fill="#5B5B5B"/>
<rect x="9.15001" y="40.15" width="75.7" height="66.7" stroke="#5B5B5B" stroke-width="0.3"/>
<path d="M9.00001 47H85" stroke="#5B5B5B" stroke-width="0.2"/>
<path d="M9.00001 55H85" stroke="#5B5B5B" stroke-width="0.3"/>
<path d="M9.00001 63H85" stroke="#5B5B5B" stroke-width="0.2"/>
<path d="M9.00001 70H85" stroke="#5B5B5B" stroke-width="0.2"/>
<rect x="9.00001" y="109" width="34" height="7" fill="#5B5B5B"/>
<rect x="9.15001" y="116.15" width="33.7" height="17.7" stroke="#5B5B5B" stroke-width="0.3"/>
<path d="M45 47L45 63" stroke="#5B5B5B" stroke-width="0.3"/>
<path d="M24 47L24 63" stroke="#5B5B5B" stroke-width="0.3"/>
<path d="M35 63L35 107" stroke="#5B5B5B" stroke-width="0.3"/>
<path d="M60 63L60 107" stroke="#5B5B5B" stroke-width="0.3"/>
<path d="M35 47L35 63" stroke="#5B5B5B" stroke-width="0.3"/>
<path d="M25.1677 42.855C25.4317 42.857 25.6257 42.915 25.7497 43.029C25.8737 43.141 25.9357 43.318 25.9357 43.56C25.9357 43.622 25.9307 43.698 25.9207 43.788L25.8757 44.175C25.8317 44.501 25.7317 44.738 25.5757 44.886C25.4197 45.032 25.1907 45.106 24.8887 45.108H23.9617L24.2377 42.855H25.1677ZM24.9337 44.778C25.1157 44.778 25.2517 44.732 25.3417 44.64C25.4317 44.548 25.4897 44.399 25.5157 44.193L25.5697 43.77C25.5777 43.69 25.5817 43.634 25.5817 43.602C25.5817 43.456 25.5467 43.35 25.4767 43.284C25.4087 43.218 25.2957 43.185 25.1377 43.185H24.5527L24.3547 44.778H24.9337ZM27.5301 42.855C27.6421 42.855 27.7071 42.909 27.7251 43.017L28.0671 45.108H27.6921L27.5931 44.457H26.6241L26.3631 45.108H25.9761L26.8401 42.993C26.8781 42.901 26.9481 42.855 27.0501 42.855H27.5301ZM27.1371 43.185L26.7561 44.127H27.5421L27.3981 43.185H27.1371ZM28.4078 43.185L28.4468 42.855H30.2258L30.1868 43.185H29.4638L29.2328 45.108H28.8788L29.1098 43.185H28.4078ZM30.5101 42.855H31.9621L31.9231 43.179H30.8251L30.7471 43.806H31.7071L31.6681 44.127H30.7081L30.6271 44.781H31.7521L31.7131 45.108H30.2341L30.5101 42.855ZM31.8945 45.108L32.9265 42.855H33.2565L32.2245 45.108H31.8945ZM35.4774 45.171H33.5544L33.8244 42.99C33.8464 42.822 33.9374 42.738 34.0974 42.738H35.4804C35.6564 42.738 35.7444 42.819 35.7444 42.981C35.7444 42.995 35.7424 43.018 35.7384 43.05L35.4774 45.171ZM34.0374 43.758H35.3394L35.4264 43.02H34.1334L34.0374 43.758ZM34.0014 44.034L33.8934 44.889H35.2074L35.3064 44.034H34.0014ZM37.4454 42.648H37.7094L37.6734 42.93H37.8264L37.7994 43.173H37.6464L37.5144 44.268H37.7094L37.6794 44.511H36.3414L36.3714 44.268H36.5544L36.6834 43.173H36.4944L36.5214 42.93H36.7134L36.7464 42.648H37.0104L36.9744 42.93H37.4124L37.4454 42.648ZM38.7474 44.88C38.7354 44.994 38.7074 45.076 38.6634 45.126C38.6214 45.178 38.5584 45.201 38.4744 45.195C38.3904 45.189 38.3194 45.181 38.2614 45.171C38.2054 45.161 38.1504 45.145 38.0964 45.123L38.1234 44.865C38.2174 44.895 38.3094 44.915 38.3994 44.925C38.4454 44.931 38.4734 44.905 38.4834 44.847L38.5404 44.31H38.0514C37.9974 44.646 37.9054 44.954 37.7754 45.234L37.5024 45.165L37.5564 45.051H37.2804L37.1184 44.607H37.3824L37.5594 45.042C37.6294 44.886 37.6854 44.724 37.7274 44.556C37.7694 44.388 37.8014 44.199 37.8234 43.989L37.9434 42.987C37.9554 42.895 37.9784 42.831 38.0124 42.795C38.0484 42.759 38.1104 42.741 38.1984 42.741H38.7144C38.8024 42.741 38.8654 42.755 38.9034 42.783C38.9414 42.811 38.9604 42.861 38.9604 42.933C38.9604 42.963 38.9574 42.996 38.9514 43.032L38.7474 44.88ZM38.6844 42.999H38.2104L38.1624 43.395H38.6394L38.6844 42.999ZM37.3824 43.173H36.9474L36.9204 43.389H37.3584L37.3824 43.173ZM37.3314 43.611H36.8934L36.8694 43.827H37.3044L37.3314 43.611ZM38.1324 43.647L38.0934 43.98L38.0844 44.058H38.5674L38.6124 43.647H38.1324ZM37.2804 44.049H36.8424L36.8154 44.268H37.2534L37.2804 44.049ZM36.9384 44.607L36.5874 45.186H36.2754L36.6444 44.607H36.9384Z" fill="white"/>
<path d="M14.2358 51.148L13.5488 49.855H13.9718L14.4248 50.794H14.4698L15.1388 49.855H15.5738L14.5868 51.157L14.4728 52.108H14.1188L14.2358 51.148ZM15.4003 52.108L16.4323 49.855H16.7623L15.7303 52.108H15.4003ZM18.0142 52.234L18.0922 51.514H16.8712L16.9042 51.241H17.2432L17.3002 50.77C17.3102 50.686 17.3362 50.626 17.3782 50.59C17.4222 50.554 17.4862 50.536 17.5702 50.536H18.1972L18.2392 50.143H17.5882C17.4922 50.291 17.4012 50.424 17.3152 50.542H16.9432C17.1672 50.234 17.3662 49.931 17.5402 49.633H17.8942L17.7532 49.876H19.4122L19.3792 50.143H18.5422L18.5002 50.536H19.2532L19.2202 50.797H18.4702L18.4252 51.241H19.4242L19.3912 51.514H18.3952L18.3202 52.234H18.0142ZM18.1672 50.797H17.5882L17.5312 51.241H18.1192L18.1672 50.797Z" fill="#5B5B5B"/>
<path d="M26.8332 49.855L27.3282 51.697H27.3402L28.2912 49.855H28.6812L28.4052 52.108H28.0812L28.2762 50.518L27.4992 52.015C27.4672 52.077 27.4172 52.108 27.3492 52.108H27.2262C27.1562 52.108 27.1142 52.077 27.1002 52.015L26.6862 50.518L26.4912 52.108H26.1672L26.4432 49.855H26.8332ZM28.6889 52.108L29.7209 49.855H30.0509L29.0189 52.108H28.6889ZM32.3288 51.916C32.3168 52.022 32.2868 52.097 32.2388 52.141C32.1908 52.185 32.1158 52.204 32.0138 52.198C31.8878 52.19 31.7888 52.179 31.7168 52.165C31.6848 52.161 31.6448 52.153 31.5968 52.141L31.4558 52.108L31.4888 51.835L31.6118 51.862C31.6858 51.878 31.7568 51.89 31.8248 51.898C31.8768 51.906 31.9168 51.91 31.9448 51.91C31.9768 51.91 31.9978 51.905 32.0078 51.895C32.0198 51.883 32.0268 51.861 32.0288 51.829L32.0798 51.352H30.7958C30.7198 51.698 30.5958 51.989 30.4238 52.225L30.1298 52.111C30.2598 51.937 30.3558 51.758 30.4178 51.574C30.4778 51.396 30.5258 51.153 30.5618 50.845L30.6608 49.975C30.6748 49.883 30.7018 49.817 30.7418 49.777C30.7818 49.737 30.8458 49.717 30.9338 49.717H32.2928C32.3808 49.717 32.4438 49.733 32.4818 49.765C32.5218 49.797 32.5418 49.853 32.5418 49.933C32.5418 49.947 32.5398 49.976 32.5358 50.02L32.3288 51.916ZM32.2298 49.993H30.9638L30.9188 50.404H32.1848L32.2298 49.993ZM30.8708 50.836C30.8608 50.932 30.8508 51.014 30.8408 51.082H32.1098L32.1548 50.674H30.8888L30.8708 50.836Z" fill="#5B5B5B"/>
<path d="M38.1179 49.855C38.3819 49.857 38.5759 49.915 38.6999 50.029C38.8239 50.141 38.8859 50.318 38.8859 50.56C38.8859 50.622 38.8809 50.698 38.8709 50.788L38.8259 51.175C38.7819 51.501 38.6819 51.738 38.5259 51.886C38.3699 52.032 38.1409 52.106 37.8389 52.108H36.9119L37.1879 49.855H38.1179ZM37.8839 51.778C38.0659 51.778 38.2019 51.732 38.2919 51.64C38.3819 51.548 38.4399 51.399 38.4659 51.193L38.5199 50.77C38.5279 50.69 38.5319 50.634 38.5319 50.602C38.5319 50.456 38.4969 50.35 38.4269 50.284C38.3589 50.218 38.2459 50.185 38.0879 50.185H37.5029L37.3049 51.778H37.8839ZM38.9443 52.108L39.9763 49.855H40.3063L39.2743 52.108H38.9443ZM42.5272 52.171H40.6042L40.8742 49.99C40.8962 49.822 40.9872 49.738 41.1472 49.738H42.5302C42.7062 49.738 42.7942 49.819 42.7942 49.981C42.7942 49.995 42.7922 50.018 42.7882 50.05L42.5272 52.171ZM41.0872 50.758H42.3892L42.4762 50.02H41.1832L41.0872 50.758ZM41.0512 51.034L40.9432 51.889H42.2572L42.3562 51.034H41.0512Z" fill="#5B5B5B"/>
<path d="M58.473 51.79C58.659 51.788 58.797 51.742 58.887 51.652C58.977 51.562 59.036 51.416 59.064 51.214L59.229 49.855H59.583L59.421 51.196C59.379 51.518 59.28 51.752 59.124 51.898C58.968 52.044 58.738 52.118 58.434 52.12H58.317C58.051 52.118 57.856 52.061 57.732 51.949C57.608 51.837 57.546 51.661 57.546 51.421C57.546 51.361 57.551 51.286 57.561 51.196L57.726 49.855H58.08L57.915 51.214C57.907 51.294 57.903 51.348 57.903 51.376C57.903 51.522 57.938 51.627 58.008 51.691C58.078 51.755 58.194 51.788 58.356 51.79H58.473ZM59.8106 50.185L59.8496 49.855H61.6286L61.5896 50.185H60.8666L60.6356 52.108H60.2816L60.5126 50.185H59.8106ZM62.867 49.855C62.951 49.855 63.071 49.857 63.227 49.861L63.413 49.864L63.368 50.197L63.194 50.191C62.994 50.187 62.869 50.185 62.819 50.185H62.687C62.505 50.185 62.369 50.231 62.279 50.323C62.191 50.415 62.133 50.564 62.105 50.77L62.051 51.205C62.043 51.285 62.039 51.341 62.039 51.373C62.039 51.519 62.073 51.625 62.141 51.691C62.211 51.757 62.325 51.79 62.483 51.79H62.627C62.733 51.79 62.905 51.783 63.143 51.769L63.218 51.766L63.194 52.096C62.998 52.112 62.799 52.12 62.597 52.12H62.453C62.189 52.118 61.995 52.061 61.871 51.949C61.747 51.837 61.685 51.661 61.685 51.421C61.685 51.359 61.69 51.281 61.7 51.187L61.745 50.788C61.787 50.462 61.886 50.226 62.042 50.08C62.2 49.932 62.431 49.857 62.735 49.855H62.867ZM63.3881 52.108L64.4201 49.855H64.7501L63.7181 52.108H63.3881ZM67.49 50.254L67.457 50.545H67.073L66.959 51.475H65.837L65.951 50.545H65.585L65.423 51.85H67.286L67.256 52.138H65.357C65.269 52.138 65.204 52.121 65.162 52.087C65.12 52.055 65.099 52.004 65.099 51.934C65.099 51.922 65.101 51.9 65.105 51.868L65.267 50.545H64.922L64.955 50.254H65.303L65.366 49.735H65.687L65.621 50.254H65.987L66.059 49.663H66.365L66.29 50.254H66.809L66.881 49.663H67.184L67.109 50.254H67.49ZM66.254 50.545L66.173 51.193H66.695L66.773 50.545H66.254ZM69.638 52.231H69.35L69.452 51.289H69.689C69.543 51.177 69.412 51.057 69.296 50.929H69.083C68.953 51.065 68.803 51.186 68.633 51.292H68.879C68.851 51.518 68.79 51.71 68.696 51.868C68.602 52.024 68.468 52.153 68.294 52.255L68.033 52.117C68.205 52.021 68.336 51.908 68.426 51.778C68.518 51.648 68.574 51.495 68.594 51.319C68.42 51.425 68.228 51.517 68.018 51.595L67.778 51.403C68.158 51.269 68.461 51.111 68.687 50.929H68.144L68.261 49.912C68.283 49.778 68.358 49.711 68.486 49.711H70.058C70.126 49.711 70.177 49.729 70.211 49.765C70.247 49.801 70.265 49.853 70.265 49.921C70.265 49.945 70.264 49.964 70.262 49.978L70.172 50.929H69.656C69.764 51.027 69.886 51.116 70.022 51.196C70.158 51.274 70.315 51.346 70.493 51.412L70.238 51.607C70.064 51.539 69.896 51.445 69.734 51.325L69.638 52.231ZM69.116 49.957H68.546L68.519 50.2H69.092L69.116 49.957ZM69.947 50.2L69.971 49.957H69.395L69.371 50.2H69.947ZM69.065 50.431H68.492L68.465 50.683H69.038L69.065 50.431ZM69.344 50.431L69.317 50.683H69.899L69.923 50.431H69.344ZM73.256 49.645L73.199 50.134H73.466L73.43 50.404H73.169L72.995 51.973C72.977 52.135 72.898 52.216 72.758 52.216C72.746 52.216 72.724 52.214 72.692 52.21C72.604 52.196 72.512 52.176 72.416 52.15C72.324 52.128 72.236 52.098 72.152 52.06L72.191 51.784C72.335 51.838 72.491 51.882 72.659 51.916C72.667 51.918 72.677 51.919 72.689 51.919C72.701 51.919 72.709 51.916 72.713 51.91C72.717 51.902 72.721 51.889 72.725 51.871L72.887 50.404H72.041L72.077 50.134H72.917L72.971 49.645H73.256ZM71.762 52.003H70.868L71.102 50.053C71.112 49.955 71.136 49.886 71.174 49.846C71.212 49.804 71.276 49.783 71.366 49.783H71.762C71.842 49.783 71.9 49.803 71.936 49.843C71.972 49.883 71.99 49.942 71.99 50.02C71.99 50.048 71.989 50.07 71.987 50.086L71.762 52.003ZM71.729 50.047H71.366L71.285 50.71H71.654L71.729 50.047ZM72.407 50.647L72.56 51.406H72.287L72.149 50.647H72.407ZM71.159 51.739H71.537L71.627 50.95H71.255L71.159 51.739Z" fill="#5B5B5B"/>
<path d="M17.2258 91.855C17.4298 91.857 17.5868 91.905 17.6968 91.999C17.8068 92.091 17.8618 92.225 17.8618 92.401C17.8618 92.423 17.8598 92.458 17.8558 92.506L17.8438 92.605C17.8198 92.787 17.7558 92.931 17.6518 93.037C17.5498 93.143 17.4118 93.21 17.2378 93.238L17.8498 94.108H17.4178L16.8478 93.253H16.4368L16.3318 94.108H15.9778L16.2538 91.855H17.2258ZM17.1028 92.929C17.2168 92.927 17.3048 92.903 17.3668 92.857C17.4308 92.811 17.4698 92.732 17.4838 92.62L17.5018 92.491C17.5038 92.477 17.5048 92.458 17.5048 92.434C17.5048 92.344 17.4788 92.28 17.4268 92.242C17.3748 92.202 17.2978 92.181 17.1958 92.179H16.5688L16.4758 92.929H17.1028ZM18.3954 91.855H18.7494L18.4734 94.108H18.1194L18.3954 91.855ZM19.9813 93.79C20.0813 93.79 20.1963 93.783 20.3263 93.769L20.4013 93.175H19.8673L19.9063 92.845H20.7943L20.6443 94.069C20.3803 94.103 20.1483 94.12 19.9483 94.12H19.7923C19.5023 94.118 19.2913 94.061 19.1593 93.949C19.0293 93.837 18.9643 93.66 18.9643 93.418C18.9643 93.358 18.9693 93.281 18.9793 93.187L19.0243 92.788C19.0523 92.568 19.1063 92.39 19.1863 92.254C19.2663 92.118 19.3793 92.018 19.5253 91.954C19.6713 91.89 19.8573 91.857 20.0833 91.855H20.1643C20.4063 91.855 20.6373 91.858 20.8573 91.864L20.8153 92.197L20.5663 92.191C20.3543 92.187 20.2073 92.185 20.1253 92.185H20.0353C19.8893 92.185 19.7723 92.206 19.6843 92.248C19.5963 92.288 19.5283 92.35 19.4803 92.434C19.4343 92.518 19.4023 92.63 19.3843 92.77L19.3303 93.205C19.3223 93.285 19.3183 93.339 19.3183 93.367C19.3183 93.517 19.3563 93.625 19.4323 93.691C19.5103 93.755 19.6433 93.788 19.8313 93.79H19.9813ZM20.8783 94.108L21.9103 91.855H22.2403L21.2083 94.108H20.8783ZM22.6312 91.69L23.2252 91.939L23.1802 92.23L22.5922 91.981L22.6312 91.69ZM24.3862 91.993H23.8642C23.8402 92.123 23.8022 92.249 23.7502 92.371C23.6982 92.491 23.6342 92.595 23.5582 92.683L23.2762 92.578C23.3622 92.478 23.4292 92.377 23.4772 92.275C23.5272 92.173 23.5612 92.056 23.5792 91.924C23.5892 91.852 23.6102 91.801 23.6422 91.771C23.6742 91.741 23.7252 91.726 23.7952 91.726H24.4672C24.6072 91.726 24.6772 91.791 24.6772 91.921C24.6772 91.945 24.6762 91.963 24.6742 91.975L24.6352 92.308C24.6332 92.316 24.6322 92.326 24.6322 92.338C24.6322 92.35 24.6362 92.358 24.6442 92.362C24.6522 92.366 24.6692 92.368 24.6952 92.368C24.8072 92.368 24.8992 92.355 24.9712 92.329L24.9382 92.602C24.9042 92.614 24.8622 92.624 24.8122 92.632C24.7622 92.638 24.7162 92.641 24.6742 92.641H24.5542C24.4082 92.641 24.3352 92.573 24.3352 92.437C24.3352 92.413 24.3362 92.395 24.3382 92.383L24.3862 91.993ZM22.9042 93.589C22.9022 93.595 22.9012 93.602 22.9012 93.61C22.9012 93.622 22.9052 93.628 22.9132 93.628C22.9232 93.628 22.9332 93.624 22.9432 93.616L23.0182 93.571C23.0842 93.535 23.1492 93.495 23.2132 93.451L23.3002 93.391L23.3062 93.706C23.2422 93.744 23.1952 93.772 23.1652 93.79L23.1082 93.823L23.0062 93.883C22.9982 93.887 22.9782 93.899 22.9462 93.919C22.9142 93.939 22.8822 93.954 22.8502 93.964C22.8202 93.974 22.7902 93.979 22.7602 93.979C22.6842 93.979 22.6352 93.944 22.6132 93.874C22.6032 93.848 22.5982 93.82 22.5982 93.79C22.5982 93.778 22.6002 93.758 22.6042 93.73L22.7362 92.674H22.4002L22.4332 92.404H22.8352C22.8992 92.404 22.9482 92.421 22.9822 92.455C23.0162 92.489 23.0332 92.536 23.0332 92.596C23.0332 92.618 23.0322 92.635 23.0302 92.647L22.9042 93.589ZM24.7402 93.097C24.6322 93.295 24.4722 93.483 24.2602 93.661C24.4442 93.807 24.6632 93.943 24.9172 94.069L24.6592 94.252C24.4112 94.118 24.2052 93.977 24.0412 93.829C23.8032 93.997 23.5442 94.13 23.2642 94.228L23.0452 94.015C23.3532 93.911 23.6172 93.781 23.8372 93.625C23.6732 93.449 23.5352 93.246 23.4232 93.016H23.3002L23.3332 92.743H24.5542C24.6282 92.743 24.6852 92.76 24.7252 92.794C24.7672 92.828 24.7882 92.874 24.7882 92.932C24.7882 92.984 24.7722 93.039 24.7402 93.097ZM23.7202 93.016C23.8082 93.184 23.9152 93.333 24.0412 93.463C24.1772 93.347 24.2962 93.221 24.3982 93.085C24.4182 93.059 24.4282 93.042 24.4282 93.034C24.4282 93.022 24.4082 93.016 24.3682 93.016H23.7202ZM27.8542 93.007C27.7342 92.985 27.6102 92.956 27.4822 92.92C27.5322 92.944 27.5692 92.979 27.5932 93.025C27.6172 93.069 27.6252 93.122 27.6172 93.184L27.5002 94.189H25.5592L25.6882 93.136C25.6942 93.094 25.7072 93.056 25.7272 93.022C25.7492 92.986 25.7772 92.957 25.8112 92.935C25.6712 92.967 25.5622 92.99 25.4842 93.004L25.3282 92.779C25.7382 92.707 26.1052 92.609 26.4292 92.485C26.3452 92.439 26.2212 92.362 26.0572 92.254C26.0112 92.304 25.9452 92.372 25.8592 92.458H25.4812C25.8032 92.14 26.0472 91.861 26.2132 91.621H26.5762L26.4382 91.801H27.4492C27.5192 91.801 27.5742 91.815 27.6142 91.843C27.6562 91.871 27.6772 91.908 27.6772 91.954C27.6772 92.008 27.6482 92.061 27.5902 92.113C27.4262 92.265 27.2492 92.393 27.0592 92.497C27.3552 92.611 27.6632 92.695 27.9832 92.749L27.8542 93.007ZM26.2282 92.059C26.4042 92.175 26.5732 92.273 26.7352 92.353C26.9192 92.263 27.0772 92.169 27.2092 92.071C27.2232 92.063 27.2302 92.056 27.2302 92.05C27.2302 92.044 27.2172 92.041 27.1912 92.041H26.2432L26.2282 92.059ZM27.3712 92.899H27.3922H27.4012C27.1792 92.835 26.9592 92.752 26.7412 92.65C26.5172 92.744 26.2572 92.827 25.9612 92.899H27.3712ZM25.9402 93.427H26.4832L26.5162 93.151H25.9732L25.9402 93.427ZM26.7622 93.427H27.2962L27.3262 93.151H26.7952L26.7622 93.427ZM25.8802 93.937H26.4262L26.4562 93.664H25.9132L25.8802 93.937ZM26.7052 93.937H27.2422L27.2692 93.664H26.7352L26.7052 93.937Z" fill="white"/>
<path d="M41.5611 91.855C41.7691 91.857 41.9291 91.907 42.0411 92.005C42.1551 92.101 42.2121 92.24 42.2121 92.422C42.2121 92.472 42.2101 92.511 42.2061 92.539L42.1881 92.692C42.1601 92.912 42.0761 93.081 41.9361 93.199C41.7961 93.315 41.6091 93.374 41.3751 93.376H40.7631L40.6731 94.108H40.3191L40.5951 91.855H41.5611ZM41.4231 93.046C41.5471 93.044 41.6421 93.017 41.7081 92.965C41.7741 92.911 41.8151 92.826 41.8311 92.71L41.8551 92.527C41.8571 92.513 41.8581 92.494 41.8581 92.47C41.8581 92.372 41.8311 92.301 41.7771 92.257C41.7251 92.211 41.6431 92.187 41.5311 92.185H40.9101L40.8021 93.046H41.4231ZM42.8593 94.108C42.8093 94.108 42.7673 94.092 42.7333 94.06C42.7013 94.03 42.6813 93.982 42.6733 93.916L42.4543 91.855H42.8293L43.0183 93.778H43.0993L43.7413 92.038H44.2153L44.4283 93.781H44.5093L45.1723 91.858H45.5593L44.8273 93.946C44.7893 94.052 44.7223 94.107 44.6263 94.111H44.2723C44.2223 94.111 44.1803 94.095 44.1463 94.063C44.1143 94.033 44.0943 93.985 44.0863 93.919L43.9303 92.497L43.4143 93.943C43.3743 94.053 43.3043 94.108 43.2043 94.108H42.8593ZM46.8024 91.855C47.0064 91.857 47.1634 91.905 47.2734 91.999C47.3834 92.091 47.4384 92.225 47.4384 92.401C47.4384 92.423 47.4364 92.458 47.4324 92.506L47.4204 92.605C47.3964 92.787 47.3324 92.931 47.2284 93.037C47.1264 93.143 46.9884 93.21 46.8144 93.238L47.4264 94.108H46.9944L46.4244 93.253H46.0134L45.9084 94.108H45.5544L45.8304 91.855H46.8024ZM46.6794 92.929C46.7934 92.927 46.8814 92.903 46.9434 92.857C47.0074 92.811 47.0464 92.732 47.0604 92.62L47.0784 92.491C47.0804 92.477 47.0814 92.458 47.0814 92.434C47.0814 92.344 47.0554 92.28 47.0034 92.242C46.9514 92.202 46.8744 92.181 46.7724 92.179H46.1454L46.0524 92.929H46.6794ZM47.537 94.108L48.569 91.855H48.899L47.867 94.108H47.537ZM50.2109 92.362L50.2439 92.086H50.5859L50.6459 91.606H50.9369L50.8739 92.086H51.2939C51.3879 92.086 51.4569 92.111 51.5009 92.161C51.5449 92.209 51.5619 92.282 51.5519 92.38C51.4999 92.894 51.4299 93.422 51.3419 93.964C51.3279 94.048 51.3019 94.108 51.2639 94.144C51.2259 94.182 51.1739 94.201 51.1079 94.201C51.0279 94.201 50.9269 94.184 50.8049 94.15C50.7029 94.124 50.6329 94.103 50.5949 94.087L50.6249 93.82C50.7809 93.874 50.9029 93.906 50.9909 93.916C51.0009 93.918 51.0119 93.919 51.0239 93.919C51.0399 93.919 51.0509 93.915 51.0569 93.907C51.0649 93.899 51.0709 93.883 51.0749 93.859C51.1089 93.677 51.1459 93.436 51.1859 93.136C51.2219 92.878 51.2529 92.62 51.2789 92.362H50.8379L50.8199 92.503C50.7719 92.867 50.6839 93.194 50.5559 93.484C50.4299 93.772 50.2599 94.026 50.0459 94.246L49.7459 94.168C49.9739 93.934 50.1509 93.688 50.2769 93.43C50.4049 93.162 50.4909 92.852 50.5349 92.5L50.5499 92.362H50.2109ZM50.0789 93.574C49.8889 93.628 49.6959 93.678 49.4999 93.724C49.3559 93.758 49.1689 93.794 48.9389 93.832L48.9749 93.55C49.0229 93.542 49.1169 93.525 49.2569 93.499L49.3739 93.475L49.5389 92.167H49.1639L49.1939 91.906H50.1869L50.1569 92.167H49.8209L49.6649 93.412C49.8369 93.372 49.9849 93.334 50.1089 93.298L50.0789 93.574ZM53.6849 93.139C53.4309 93.171 53.1799 93.193 52.9319 93.205C52.8779 93.211 52.8349 93.202 52.8029 93.178C52.7709 93.154 52.7549 93.125 52.7549 93.091C52.7549 93.067 52.7619 93.044 52.7759 93.022C52.7919 92.998 52.8139 92.976 52.8419 92.956C52.9279 92.9 53.0479 92.809 53.2019 92.683C53.0819 92.695 52.9949 92.701 52.9409 92.701C52.9069 92.701 52.8779 92.695 52.8539 92.683C52.8299 92.669 52.8129 92.651 52.8029 92.629C52.7949 92.609 52.7909 92.593 52.7909 92.581C52.7909 92.537 52.8139 92.495 52.8599 92.455C52.9839 92.347 53.1049 92.234 53.2229 92.116H52.2479L52.2779 91.867H53.2889L53.1989 91.624H53.5079L53.5979 91.867H54.5819L54.5519 92.116H53.5409C53.4689 92.188 53.4019 92.252 53.3399 92.308L53.1599 92.473C53.1799 92.471 53.2209 92.468 53.2829 92.464C53.3449 92.46 53.4089 92.452 53.4749 92.44C53.5489 92.376 53.6249 92.299 53.7029 92.209L53.9369 92.308C53.8229 92.422 53.6989 92.536 53.5649 92.65C53.4289 92.766 53.2939 92.873 53.1599 92.971C53.2919 92.963 53.4399 92.948 53.6039 92.926L53.5409 92.755H53.7839L53.9729 93.235H53.7239L53.6849 93.139ZM53.9729 92.359L54.4499 92.185L54.4199 92.449L53.9429 92.62L53.9729 92.359ZM52.3139 92.191L52.7669 92.359L52.7279 92.611L52.2809 92.446L52.3139 92.191ZM53.9489 92.665L54.4709 92.971L54.4349 93.247L53.9159 92.92L53.9489 92.665ZM52.1309 92.98C52.3169 92.898 52.5149 92.794 52.7249 92.668L52.6919 92.977C52.4519 93.107 52.2539 93.207 52.0979 93.277L52.1309 92.98ZM54.5519 93.421L54.5189 93.685H53.4119L53.3429 94.246H53.0489L53.1149 93.685H52.0199L52.0499 93.421H53.1479L53.1689 93.247H53.4689L53.4449 93.421H54.5519Z" fill="white"/>
<path d="M55.4189 104.108C55.3689 104.108 55.3269 104.092 55.2929 104.06C55.2609 104.03 55.2409 103.982 55.2329 103.916L55.0139 101.855H55.3889L55.5779 103.778H55.6589L56.3009 102.038H56.7749L56.9879 103.781H57.0689L57.7319 101.858H58.1189L57.3869 103.946C57.3489 104.052 57.2819 104.107 57.1859 104.111H56.8319C56.7819 104.111 56.7399 104.095 56.7059 104.063C56.6739 104.033 56.6539 103.985 56.6459 103.919L56.4899 102.497L55.9739 103.943C55.9339 104.053 55.8639 104.108 55.7639 104.108H55.4189Z" fill="#5B5B5B"/>
<path d="M67.219 91.855C67.331 91.855 67.396 91.909 67.414 92.017L67.756 94.108H67.381L67.282 93.457H66.313L66.052 94.108H65.665L66.529 91.993C66.567 91.901 66.637 91.855 66.739 91.855H67.219ZM66.826 92.185L66.445 93.127H67.231L67.087 92.185H66.826ZM68.2977 91.855H68.6367L69.5427 93.514L69.5577 93.541L69.7647 91.855H70.1037L69.8277 94.108H69.4887L68.5797 92.455L68.5677 92.428L68.3607 94.108H68.0217L68.2977 91.855ZM70.3467 92.185L70.3857 91.855H72.1647L72.1257 92.185H71.4027L71.1717 94.108H70.8177L71.0487 92.185H70.3467ZM72.0141 94.108L73.0461 91.855H73.3761L72.3441 94.108H72.0141ZM75.063 92.068C75.035 92.254 75.008 92.42 74.982 92.566C74.982 92.56 74.978 92.579 74.97 92.623H76.041L76.005 92.917H74.988C75.114 93.161 75.261 93.377 75.429 93.565C75.597 93.753 75.789 93.927 76.005 94.087L75.696 94.249C75.304 93.917 75.002 93.547 74.79 93.139C74.682 93.355 74.539 93.554 74.361 93.736C74.185 93.916 73.973 94.087 73.725 94.249L73.446 94.084C73.746 93.882 73.984 93.688 74.16 93.502C74.338 93.318 74.471 93.123 74.559 92.917H73.626L73.656 92.623H74.652L74.664 92.563C74.692 92.409 74.716 92.272 74.736 92.152C74.744 92.11 74.749 92.082 74.751 92.068H73.845L73.875 91.774H75.942L75.906 92.068H75.063ZM77.595 92.806L77.994 92.746L77.988 92.446L77.685 92.479L77.715 92.215L77.982 92.188L77.979 91.891L77.982 91.621H78.264C78.26 91.729 78.258 91.815 78.258 91.879V92.158L79.041 92.071L79.011 92.332L78.264 92.416C78.264 92.46 78.266 92.526 78.27 92.614L78.273 92.704L79.02 92.593L78.99 92.857L78.282 92.962L78.288 93.073C78.288 93.101 78.29 93.133 78.294 93.169C78.3 93.269 78.309 93.358 78.321 93.436C78.529 93.318 78.745 93.175 78.969 93.007L78.933 93.325C78.761 93.465 78.575 93.589 78.375 93.697C78.403 93.793 78.427 93.854 78.447 93.88C78.467 93.914 78.495 93.931 78.531 93.931C78.553 93.931 78.578 93.926 78.606 93.916C78.636 93.904 78.667 93.89 78.699 93.874C78.731 93.856 78.756 93.843 78.774 93.835C78.83 93.809 78.899 93.772 78.981 93.724L78.945 94.054C78.901 94.082 78.848 94.109 78.786 94.135C78.726 94.163 78.674 94.184 78.63 94.198C78.582 94.214 78.539 94.222 78.501 94.222C78.447 94.222 78.397 94.21 78.351 94.186C78.305 94.164 78.267 94.133 78.237 94.093C78.193 94.035 78.154 93.948 78.12 93.832C77.9 93.938 77.667 94.028 77.421 94.102L77.46 93.811C77.676 93.743 77.876 93.664 78.06 93.574C78.042 93.472 78.028 93.352 78.018 93.214C78.014 93.178 78.012 93.146 78.012 93.118L78.006 93.004L77.565 93.07L77.595 92.806ZM77.463 93.31C77.365 93.332 77.259 93.353 77.145 93.373C76.993 93.401 76.861 93.422 76.749 93.436L76.719 93.439C76.689 93.439 76.663 93.432 76.641 93.418C76.619 93.402 76.602 93.382 76.59 93.358C76.58 93.338 76.575 93.318 76.575 93.298C76.575 93.26 76.59 93.223 76.62 93.187C76.722 93.075 76.848 92.921 76.998 92.725C76.94 92.733 76.84 92.744 76.698 92.758C76.662 92.762 76.631 92.758 76.605 92.746C76.581 92.734 76.563 92.716 76.551 92.692C76.541 92.672 76.536 92.653 76.536 92.635C76.536 92.603 76.55 92.568 76.578 92.53C76.666 92.418 76.77 92.271 76.89 92.089C76.968 91.971 77.059 91.822 77.163 91.642H77.481C77.315 91.932 77.142 92.201 76.962 92.449C77.03 92.447 77.118 92.435 77.226 92.413C77.25 92.381 77.298 92.31 77.37 92.2H77.667C77.523 92.424 77.415 92.588 77.343 92.692C77.239 92.84 77.128 92.985 77.01 93.127C77.058 93.121 77.138 93.106 77.25 93.082L77.496 93.028L77.463 93.31ZM78.588 92.005L78.45 91.69H78.72L78.867 92.005H78.588ZM77.43 93.799C77.198 93.877 76.877 93.961 76.467 94.051L76.5 93.769C76.708 93.721 76.881 93.679 77.019 93.643C77.157 93.607 77.301 93.563 77.451 93.511L77.43 93.799Z" fill="white"/>
<path d="M11.738 120.108C11.636 120.108 11.574 120.044 11.552 119.916L11.213 117.855H11.588L11.888 119.778H12.14L12.917 117.855H13.304L12.452 119.943C12.428 120.003 12.399 120.045 12.365 120.069C12.331 120.095 12.29 120.108 12.242 120.108H11.738ZM14.1118 119.148L13.4248 117.855H13.8478L14.3008 118.794H14.3458L15.0148 117.855H15.4498L14.4628 119.157L14.3488 120.108H13.9948L14.1118 119.148ZM16.2295 118.185L16.2685 117.855H17.7235L17.6935 118.125L16.6315 120.108H16.2355L17.2645 118.185H16.2295ZM18.4687 117.855C18.7367 117.855 18.9267 117.904 19.0387 118.002C19.1527 118.098 19.2017 118.244 19.1857 118.44L19.1767 118.542C19.1567 118.732 19.0547 118.865 18.8707 118.941C19.0487 119.007 19.1377 119.146 19.1377 119.358C19.1377 119.376 19.1357 119.409 19.1317 119.457L19.1227 119.541C19.0967 119.737 19.0127 119.881 18.8707 119.973C18.7307 120.063 18.5267 120.108 18.2587 120.108C18.0947 120.108 17.9077 120.096 17.6977 120.072L17.7397 119.742C17.8637 119.756 17.9607 119.766 18.0307 119.772C18.1027 119.776 18.1917 119.778 18.2977 119.778C18.4577 119.778 18.5727 119.757 18.6427 119.715C18.7127 119.673 18.7547 119.605 18.7687 119.511L18.7777 119.427C18.7797 119.415 18.7807 119.398 18.7807 119.376C18.7807 119.286 18.7517 119.221 18.6937 119.181C18.6357 119.141 18.5427 119.12 18.4147 119.118H18.0067L18.0457 118.797H18.4477C18.5617 118.795 18.6497 118.775 18.7117 118.737C18.7737 118.697 18.8117 118.632 18.8257 118.542L18.8347 118.446L18.8377 118.41C18.8377 118.338 18.8077 118.283 18.7477 118.245C18.6897 118.205 18.5847 118.185 18.4327 118.185C18.2467 118.185 18.0667 118.192 17.8927 118.206L17.9347 117.87C18.1007 117.86 18.2787 117.855 18.4687 117.855ZM19.8844 119.394H19.5514L19.7464 117.813H20.0794L19.8844 119.394ZM19.4494 119.859C19.4574 119.807 19.4774 119.767 19.5094 119.739C19.5434 119.709 19.5854 119.694 19.6354 119.694H19.7224C19.7724 119.694 19.8114 119.709 19.8394 119.739C19.8694 119.767 19.8804 119.807 19.8724 119.859L19.8604 119.949C19.8524 120.003 19.8314 120.045 19.7974 120.075C19.7634 120.105 19.7214 120.12 19.6714 120.12H19.5844C19.5344 120.12 19.4954 120.105 19.4674 120.075C19.4394 120.045 19.4294 120.003 19.4374 119.949L19.4494 119.859Z" fill="#5B5B5B"/>
<path d="M67.3581 65.855C67.5621 65.857 67.7191 65.905 67.8291 65.999C67.9391 66.091 67.9941 66.225 67.9941 66.401C67.9941 66.423 67.9921 66.458 67.9881 66.506L67.9761 66.605C67.9521 66.787 67.8881 66.931 67.7841 67.037C67.6821 67.143 67.5441 67.21 67.3701 67.238L67.9821 68.108H67.5501L66.9801 67.253H66.5691L66.4641 68.108H66.1101L66.3861 65.855H67.3581ZM67.2351 66.929C67.3491 66.927 67.4371 66.903 67.4991 66.857C67.5631 66.811 67.6021 66.732 67.6161 66.62L67.6341 66.491C67.6361 66.477 67.6371 66.458 67.6371 66.434C67.6371 66.344 67.6111 66.28 67.5591 66.242C67.5071 66.202 67.4301 66.181 67.3281 66.179H66.7011L66.6081 66.929H67.2351ZM68.8007 68.12C68.5387 68.12 68.3227 68.107 68.1527 68.081L68.1947 67.745C68.4387 67.775 68.6537 67.79 68.8397 67.79H68.8787C69.0047 67.79 69.1037 67.778 69.1757 67.754C69.2497 67.73 69.3027 67.695 69.3347 67.649C69.3667 67.603 69.3867 67.544 69.3947 67.472C69.3987 67.436 69.4007 67.411 69.4007 67.397C69.4007 67.327 69.3847 67.274 69.3527 67.238C69.3207 67.202 69.2727 67.177 69.2087 67.163C69.1467 67.147 69.0527 67.131 68.9267 67.115C68.7827 67.099 68.6687 67.074 68.5847 67.04C68.5007 67.006 68.4377 66.957 68.3957 66.893C68.3557 66.827 68.3357 66.739 68.3357 66.629C68.3357 66.585 68.3387 66.536 68.3447 66.482C68.3707 66.256 68.4467 66.095 68.5727 65.999C68.6987 65.903 68.8917 65.855 69.1517 65.855H69.3617C69.5137 65.855 69.6817 65.857 69.8657 65.861L69.8267 66.191C69.7207 66.191 69.6397 66.19 69.5837 66.188L69.3227 66.185H69.1127C68.9667 66.185 68.8597 66.211 68.7917 66.263C68.7257 66.313 68.6927 66.409 68.6927 66.551C68.6927 66.613 68.7047 66.66 68.7287 66.692C68.7527 66.722 68.7857 66.743 68.8277 66.755C68.8697 66.767 68.9377 66.78 69.0317 66.794C69.0497 66.796 69.0857 66.801 69.1397 66.809C69.2877 66.831 69.4057 66.86 69.4937 66.896C69.5817 66.932 69.6477 66.984 69.6917 67.052C69.7357 67.118 69.7577 67.208 69.7577 67.322C69.7577 67.364 69.7547 67.409 69.7487 67.457C69.7287 67.623 69.6847 67.754 69.6167 67.85C69.5507 67.946 69.4547 68.015 69.3287 68.057C69.2027 68.099 69.0397 68.12 68.8397 68.12H68.8007ZM70.0787 66.185L70.1177 65.855H71.8967L71.8577 66.185H71.1347L70.9037 68.108H70.5497L70.7807 66.185H70.0787ZM71.746 68.108L72.778 65.855H73.108L72.076 68.108H71.746ZM75.1879 65.903H75.8809L75.8479 66.176H74.1559L74.1889 65.903H74.8639L74.7889 65.642H75.1039L75.1879 65.903ZM74.2669 65.648C74.1909 65.788 74.0879 65.969 73.9579 66.191L73.7179 68.225H73.4239L73.6009 66.773C73.5589 66.837 73.5169 66.897 73.4749 66.953H73.1119C73.2579 66.757 73.3889 66.563 73.5049 66.371C73.6209 66.177 73.7599 65.936 73.9219 65.648H74.2669ZM74.2549 66.371H75.7099L75.6829 66.626H74.2249L74.2549 66.371ZM74.2069 66.83H75.6829L75.6559 67.082H74.1769L74.2069 66.83ZM75.5539 68.195H74.0569L74.1319 67.508C74.1519 67.344 74.2479 67.262 74.4199 67.262H75.3979C75.5559 67.262 75.6349 67.327 75.6349 67.457C75.6349 67.477 75.6339 67.493 75.6319 67.505L75.5539 68.195ZM74.3899 67.946H75.2809L75.3289 67.508H74.4349L74.3899 67.946ZM78.4699 66.548H76.6189L76.6969 65.906C76.7089 65.78 76.7839 65.717 76.9219 65.717H78.2929C78.4609 65.717 78.5449 65.783 78.5449 65.915C78.5449 65.935 78.5439 65.951 78.5419 65.963L78.4699 66.548ZM76.9369 66.296H78.2119L78.2569 65.969H76.9819L76.9369 66.296ZM78.7729 66.737L78.7429 67.001H77.0959L76.9879 67.244H78.1489C78.2309 67.244 78.2899 67.261 78.3259 67.295C78.3619 67.329 78.3799 67.383 78.3799 67.457C78.3799 67.487 78.3789 67.51 78.3769 67.526C78.3589 67.69 78.3369 67.843 78.3109 67.985C78.2949 68.067 78.2629 68.128 78.2149 68.168C78.1689 68.21 78.1029 68.231 78.0169 68.231C77.9889 68.231 77.9679 68.23 77.9539 68.228C77.8259 68.212 77.7059 68.192 77.5939 68.168C77.4839 68.144 77.3629 68.113 77.2309 68.075L77.2669 67.811C77.5109 67.881 77.7339 67.928 77.9359 67.952C77.9719 67.958 77.9959 67.95 78.0079 67.928C78.0219 67.906 78.0299 67.882 78.0319 67.856C78.0359 67.828 78.0389 67.809 78.0409 67.799L78.0679 67.589L78.0769 67.496H76.8439C76.7159 67.496 76.6519 67.449 76.6519 67.355C76.6519 67.321 76.6609 67.282 76.6789 67.238L76.7869 67.001H76.2799L76.3099 66.737H78.7729Z" fill="white"/>
<path d="M57.9834 43.185L58.0224 42.855H59.8014L59.7624 43.185H59.0394L58.8084 45.108H58.4544L58.6854 43.185H57.9834ZM60.0858 42.855H60.4398L60.1638 45.108H59.8098L60.0858 42.855ZM61.2727 42.855L61.7677 44.697H61.7797L62.7307 42.855H63.1207L62.8447 45.108H62.5207L62.7157 43.518L61.9387 45.015C61.9067 45.077 61.8567 45.108 61.7887 45.108H61.6657C61.5957 45.108 61.5537 45.077 61.5397 45.015L61.1257 43.518L60.9307 45.108H60.6067L60.8827 42.855H61.2727ZM63.5633 42.855H65.0153L64.9763 43.179H63.8783L63.8003 43.806H64.7603L64.7213 44.127H63.7613L63.6803 44.781H64.8053L64.7663 45.108H63.2873L63.5633 42.855ZM64.9477 45.108L65.9797 42.855H66.3097L65.2777 45.108H64.9477ZM68.8156 42.645L68.7586 43.134H69.0256L68.9896 43.404H68.7286L68.5546 44.973C68.5366 45.135 68.4576 45.216 68.3176 45.216C68.3056 45.216 68.2836 45.214 68.2516 45.21C68.1636 45.196 68.0716 45.176 67.9756 45.15C67.8836 45.128 67.7956 45.098 67.7116 45.06L67.7506 44.784C67.8946 44.838 68.0506 44.882 68.2186 44.916C68.2266 44.918 68.2366 44.919 68.2486 44.919C68.2606 44.919 68.2686 44.916 68.2726 44.91C68.2766 44.902 68.2806 44.889 68.2846 44.871L68.4466 43.404H67.6006L67.6366 43.134H68.4766L68.5306 42.645H68.8156ZM67.3216 45.003H66.4276L66.6616 43.053C66.6716 42.955 66.6956 42.886 66.7336 42.846C66.7716 42.804 66.8356 42.783 66.9256 42.783H67.3216C67.4016 42.783 67.4596 42.803 67.4956 42.843C67.5316 42.883 67.5496 42.942 67.5496 43.02C67.5496 43.048 67.5486 43.07 67.5466 43.086L67.3216 45.003ZM67.2886 43.047H66.9256L66.8446 43.71H67.2136L67.2886 43.047ZM67.9666 43.647L68.1196 44.406H67.8466L67.7086 43.647H67.9666ZM66.7186 44.739H67.0966L67.1866 43.95H66.8146L66.7186 44.739ZM69.7156 42.66L70.2766 42.858L70.2376 43.152L69.6796 42.942L69.7156 42.66ZM71.7196 42.738C71.8056 42.738 71.8686 42.756 71.9086 42.792C71.9506 42.828 71.9716 42.886 71.9716 42.966C71.9716 43.002 71.9696 43.031 71.9656 43.053L71.7376 44.928C71.7256 45.032 71.6956 45.106 71.6476 45.15C71.6016 45.196 71.5316 45.216 71.4376 45.21C71.2856 45.202 71.1206 45.176 70.9426 45.132L70.9696 44.853C71.0636 44.877 71.1976 44.901 71.3716 44.925C71.3776 44.927 71.3846 44.928 71.3926 44.928C71.4086 44.928 71.4206 44.923 71.4286 44.913C71.4386 44.903 71.4446 44.885 71.4466 44.859L71.6626 43.02H70.4356L70.4656 42.738H71.7196ZM69.4336 45.21L69.6616 43.224H69.9586L69.7216 45.21H69.4336ZM71.1916 44.682H70.0726L70.2046 43.56C70.2126 43.464 70.2346 43.396 70.2706 43.356C70.3086 43.314 70.3726 43.293 70.4626 43.293H71.0956C71.2456 43.293 71.3206 43.371 71.3206 43.527C71.3206 43.555 71.3196 43.577 71.3176 43.593L71.1916 44.682ZM71.0536 43.554H70.4716L70.4386 43.857H71.0176L71.0536 43.554ZM70.3756 44.424H70.9516L70.9906 44.097H70.4116L70.3756 44.424Z" fill="white"/>
<path d="M14.7362 65.855H16.2122L16.1732 66.185H15.0512L14.9672 66.854H15.9842L15.9452 67.184H14.9282L14.8142 68.108H14.4602L14.7362 65.855ZM17.507 65.855C17.711 65.857 17.868 65.905 17.978 65.999C18.088 66.091 18.143 66.225 18.143 66.401C18.143 66.423 18.141 66.458 18.137 66.506L18.125 66.605C18.101 66.787 18.037 66.931 17.933 67.037C17.831 67.143 17.693 67.21 17.519 67.238L18.131 68.108H17.699L17.129 67.253H16.718L16.613 68.108H16.259L16.535 65.855H17.507ZM17.384 66.929C17.498 66.927 17.586 66.903 17.648 66.857C17.712 66.811 17.751 66.732 17.765 66.62L17.783 66.491C17.785 66.477 17.786 66.458 17.786 66.434C17.786 66.344 17.76 66.28 17.708 66.242C17.656 66.202 17.579 66.181 17.477 66.179H16.85L16.757 66.929H17.384ZM18.6766 65.855H20.1286L20.0896 66.179H18.9916L18.9136 66.806H19.8736L19.8346 67.127H18.8746L18.7936 67.781H19.9186L19.8796 68.108H18.4006L18.6766 65.855ZM21.54 65.843C21.804 65.845 21.998 65.903 22.122 66.017C22.246 66.129 22.308 66.306 22.308 66.548C22.308 66.61 22.303 66.686 22.293 66.776L22.248 67.187C22.204 67.521 22.099 67.763 21.933 67.913L22.29 68.372L21.981 68.606L21.585 68.084C21.489 68.108 21.38 68.12 21.258 68.12H21.036C20.772 68.118 20.578 68.061 20.454 67.949C20.33 67.837 20.268 67.661 20.268 67.421C20.268 67.359 20.273 67.281 20.283 67.187L20.328 66.776C20.37 66.45 20.469 66.214 20.625 66.068C20.783 65.92 21.014 65.845 21.318 65.843H21.54ZM20.634 67.205C20.626 67.285 20.622 67.341 20.622 67.373C20.622 67.519 20.656 67.625 20.724 67.691C20.794 67.757 20.908 67.79 21.066 67.79H21.306C21.488 67.79 21.623 67.744 21.711 67.652C21.801 67.56 21.86 67.411 21.888 67.205L21.942 66.758C21.95 66.678 21.954 66.622 21.954 66.59C21.954 66.444 21.919 66.338 21.849 66.272C21.781 66.206 21.668 66.173 21.51 66.173H21.27C21.088 66.173 20.952 66.219 20.862 66.311C20.774 66.403 20.716 66.552 20.688 66.758L20.634 67.205ZM22.3959 68.108L23.4279 65.855H23.7579L22.7259 68.108H22.3959ZM24.6228 65.645H24.8838L24.8508 65.945H25.1898L25.1598 66.197H24.8208L24.7848 66.518H25.1808L25.1508 66.779H24.7518L24.6678 67.481C24.7638 67.343 24.8308 67.161 24.8688 66.935H25.1268C25.0928 67.141 25.0438 67.311 24.9798 67.445C24.9138 67.585 24.8208 67.715 24.7008 67.835C24.4968 68.033 24.2408 68.182 23.9328 68.282L23.7678 68.066C23.9398 68.008 24.0908 67.943 24.2208 67.871C24.3508 67.799 24.4648 67.712 24.5628 67.61C24.5888 67.584 24.6208 67.545 24.6588 67.493H24.4068L24.4938 66.779H23.9298L23.9598 66.518H24.0978L24.1728 65.861H24.4188L24.3438 66.518H24.5238L24.6228 65.645ZM26.1798 66.248C26.2538 66.248 26.3078 66.266 26.3418 66.302C26.3758 66.336 26.3928 66.389 26.3928 66.461C26.3928 66.491 26.3918 66.514 26.3898 66.53L26.2668 67.538H25.9998L26.1258 66.497H25.5168L25.3998 67.538H25.1388L25.2588 66.497C25.2688 66.407 25.2928 66.343 25.3308 66.305C25.3688 66.267 25.4308 66.248 25.5168 66.248H25.6548L25.7208 66.008H25.2858L25.3158 65.753H26.5008L26.4708 66.008H26.0178L25.9518 66.248H26.1798ZM26.1318 68.258C25.9838 68.032 25.8428 67.834 25.7088 67.664C25.6428 67.788 25.5598 67.9 25.4598 68C25.3618 68.098 25.2468 68.192 25.1148 68.282L24.8508 68.138C25.0768 68 25.2518 67.849 25.3758 67.685C25.5098 67.509 25.5928 67.295 25.6248 67.043L25.6668 66.674H25.9308L25.8858 67.073C25.8698 67.197 25.8458 67.311 25.8138 67.415C26.0138 67.631 26.2178 67.877 26.4258 68.153L26.1318 68.258ZM23.8728 67.595C23.9188 67.479 23.9598 67.368 23.9958 67.262C24.0398 67.132 24.0728 67.028 24.0948 66.95H24.3468C24.2828 67.18 24.2108 67.395 24.1308 67.595H23.8728ZM28.5438 67.139C28.2898 67.171 28.0388 67.193 27.7908 67.205C27.7368 67.211 27.6938 67.202 27.6618 67.178C27.6298 67.154 27.6138 67.125 27.6138 67.091C27.6138 67.067 27.6208 67.044 27.6348 67.022C27.6508 66.998 27.6728 66.976 27.7008 66.956C27.7868 66.9 27.9068 66.809 28.0608 66.683C27.9408 66.695 27.8538 66.701 27.7998 66.701C27.7658 66.701 27.7368 66.695 27.7128 66.683C27.6888 66.669 27.6718 66.651 27.6618 66.629C27.6538 66.609 27.6498 66.593 27.6498 66.581C27.6498 66.537 27.6728 66.495 27.7188 66.455C27.8428 66.347 27.9638 66.234 28.0818 66.116H27.1068L27.1368 65.867H28.1478L28.0578 65.624H28.3668L28.4568 65.867H29.4408L29.4108 66.116H28.3998C28.3278 66.188 28.2608 66.252 28.1988 66.308L28.0188 66.473C28.0388 66.471 28.0798 66.468 28.1418 66.464C28.2038 66.46 28.2678 66.452 28.3338 66.44C28.4078 66.376 28.4838 66.299 28.5618 66.209L28.7958 66.308C28.6818 66.422 28.5578 66.536 28.4238 66.65C28.2878 66.766 28.1528 66.873 28.0188 66.971C28.1508 66.963 28.2988 66.948 28.4628 66.926L28.3998 66.755H28.6428L28.8318 67.235H28.5828L28.5438 67.139ZM28.8318 66.359L29.3088 66.185L29.2788 66.449L28.8018 66.62L28.8318 66.359ZM27.1728 66.191L27.6258 66.359L27.5868 66.611L27.1398 66.446L27.1728 66.191ZM28.8078 66.665L29.3298 66.971L29.2938 67.247L28.7748 66.92L28.8078 66.665ZM26.9898 66.98C27.1758 66.898 27.3738 66.794 27.5838 66.668L27.5508 66.977C27.3108 67.107 27.1128 67.207 26.9568 67.277L26.9898 66.98ZM29.4108 67.421L29.3778 67.685H28.2708L28.2018 68.246H27.9078L27.9738 67.685H26.8788L26.9088 67.421H28.0068L28.0278 67.247H28.3278L28.3038 67.421H29.4108Z" fill="white"/>
<path d="M40.175 65.855L40.67 67.697H40.682L41.633 65.855H42.023L41.747 68.108H41.423L41.618 66.518L40.841 68.015C40.809 68.077 40.759 68.108 40.691 68.108H40.568C40.498 68.108 40.456 68.077 40.442 68.015L40.028 66.518L39.833 68.108H39.509L39.785 65.855H40.175ZM43.5097 65.843C43.7737 65.845 43.9677 65.903 44.0917 66.017C44.2157 66.129 44.2777 66.306 44.2777 66.548C44.2777 66.61 44.2727 66.686 44.2627 66.776L44.2177 67.187C44.1737 67.513 44.0737 67.75 43.9177 67.898C43.7617 68.044 43.5317 68.118 43.2277 68.12H43.0057C42.7417 68.118 42.5477 68.061 42.4237 67.949C42.2997 67.837 42.2377 67.661 42.2377 67.421C42.2377 67.359 42.2427 67.281 42.2527 67.187L42.2977 66.776C42.3397 66.45 42.4387 66.214 42.5947 66.068C42.7527 65.92 42.9837 65.845 43.2877 65.843H43.5097ZM42.6037 67.205C42.5957 67.285 42.5917 67.341 42.5917 67.373C42.5917 67.519 42.6257 67.625 42.6937 67.691C42.7637 67.755 42.8777 67.788 43.0357 67.79H43.2757C43.4577 67.788 43.5927 67.742 43.6807 67.652C43.7707 67.56 43.8297 67.411 43.8577 67.205L43.9117 66.758C43.9197 66.678 43.9237 66.622 43.9237 66.59C43.9237 66.444 43.8887 66.339 43.8187 66.275C43.7507 66.209 43.6377 66.175 43.4797 66.173H43.2397C43.0577 66.175 42.9217 66.222 42.8317 66.314C42.7437 66.404 42.6857 66.552 42.6577 66.758L42.6037 67.205ZM45.7014 65.855C45.9654 65.857 46.1594 65.915 46.2834 66.029C46.4074 66.141 46.4694 66.318 46.4694 66.56C46.4694 66.622 46.4644 66.698 46.4544 66.788L46.4094 67.175C46.3654 67.501 46.2654 67.738 46.1094 67.886C45.9534 68.032 45.7244 68.106 45.4224 68.108H44.4954L44.7714 65.855H45.7014ZM45.4674 67.778C45.6494 67.778 45.7854 67.732 45.8754 67.64C45.9654 67.548 46.0234 67.399 46.0494 67.193L46.1034 66.77C46.1114 66.69 46.1154 66.634 46.1154 66.602C46.1154 66.456 46.0804 66.35 46.0104 66.284C45.9424 66.218 45.8294 66.185 45.6714 66.185H45.0864L44.8884 67.778H45.4674ZM46.9628 65.855H48.4148L48.3758 66.179H47.2778L47.1998 66.806H48.1598L48.1208 67.127H47.1608L47.0798 67.781H48.2048L48.1658 68.108H46.6868L46.9628 65.855ZM48.3471 68.108L49.3791 65.855H49.7091L48.6771 68.108H48.3471ZM50.226 66.992C50.132 67.172 50.031 67.336 49.923 67.484L49.707 67.343C49.923 67.067 50.117 66.74 50.289 66.362H49.902L49.932 66.107H50.322L50.376 65.615H50.64L50.586 66.107H50.88L50.853 66.362H50.559L50.55 66.461C50.628 66.593 50.728 66.776 50.85 67.01L50.655 67.151C50.631 67.099 50.607 67.043 50.583 66.983L50.511 66.827L50.361 68.237H50.094L50.226 66.992ZM51.486 66.077L51.468 66.233H51.213L51.231 66.077H50.898L50.925 65.849H51.255L51.279 65.645H51.534L51.51 65.849H51.864L51.888 65.645H52.143L52.119 65.849H52.467L52.443 66.077H52.095L52.077 66.233H51.822L51.84 66.077H51.486ZM51.366 67.394C51.378 67.366 51.387 67.334 51.393 67.298C51.401 67.26 51.406 67.236 51.408 67.226H50.874L50.967 66.482C50.975 66.416 50.994 66.369 51.024 66.341C51.056 66.313 51.105 66.299 51.171 66.299H52.116C52.174 66.299 52.219 66.316 52.251 66.35C52.285 66.384 52.302 66.429 52.302 66.485C52.302 66.505 52.301 66.52 52.299 66.53L52.221 67.226H51.687C51.679 67.274 51.666 67.33 51.648 67.394H52.383L52.353 67.628H51.702C51.876 67.802 52.104 67.953 52.386 68.081L52.161 68.258C51.883 68.116 51.658 67.938 51.486 67.724C51.334 67.942 51.096 68.114 50.772 68.24L50.553 68.063C50.717 67.999 50.854 67.934 50.964 67.868C51.074 67.8 51.165 67.72 51.237 67.628H50.709L50.736 67.394H51.366ZM52.041 66.509H51.216L51.198 66.656H52.023L52.041 66.509ZM51.153 67.016H51.987L52.002 66.857H51.171L51.153 67.016ZM54.627 65.603C54.619 65.749 54.615 65.918 54.615 66.11H55.368L55.332 66.389H54.621C54.629 66.667 54.642 66.904 54.66 67.1C54.678 67.316 54.703 67.481 54.735 67.595C54.769 67.721 54.798 67.805 54.822 67.847C54.842 67.881 54.866 67.898 54.894 67.898C54.906 67.898 54.927 67.893 54.957 67.883C55.017 67.859 55.066 67.836 55.104 67.814L55.182 67.769L55.275 67.712L55.239 68.057C55.145 68.107 55.053 68.149 54.963 68.183C54.905 68.199 54.857 68.207 54.819 68.207C54.775 68.207 54.736 68.197 54.702 68.177C54.67 68.159 54.64 68.13 54.612 68.09C54.494 67.922 54.415 67.608 54.375 67.148C54.355 66.966 54.34 66.713 54.33 66.389H52.932L52.968 66.11H54.324V65.849C54.324 65.793 54.326 65.711 54.33 65.603H54.627ZM55.044 65.657L55.176 66.029H54.888L54.768 65.657H55.044ZM54.186 67.841C53.726 67.945 53.266 68.032 52.806 68.102L52.845 67.835C52.889 67.829 52.969 67.816 53.085 67.796L53.346 67.751L53.442 66.962H53.004L53.034 66.698H54.198L54.168 66.962H53.739L53.649 67.694C53.767 67.67 53.954 67.63 54.21 67.574L54.186 67.841Z" fill="white"/>
<path d="M34.1987 33.932C34.1987 34.343 34.2047 34.58 33.9947 34.79C33.8477 34.937 33.6587 35.018 33.4307 35.018C33.2027 35.018 33.0167 34.937 32.8697 34.79C32.6597 34.58 32.6627 34.343 32.6627 33.932C32.6627 33.521 32.6597 33.284 32.8697 33.074C33.0167 32.927 33.2027 32.846 33.4307 32.846C33.6587 32.846 33.8477 32.927 33.9947 33.074C34.2047 33.284 34.1987 33.521 34.1987 33.932ZM33.8747 33.932C33.8747 33.503 33.8537 33.383 33.7487 33.269C33.6737 33.188 33.5567 33.137 33.4307 33.137C33.3047 33.137 33.1877 33.188 33.1127 33.269C33.0077 33.383 32.9867 33.503 32.9867 33.932C32.9867 34.361 33.0077 34.481 33.1127 34.595C33.1877 34.676 33.3047 34.727 33.4307 34.727C33.5567 34.727 33.6737 34.676 33.7487 34.595C33.8537 34.481 33.8747 34.361 33.8747 33.932ZM36.1801 34.28C36.1801 34.721 35.8471 35.018 35.4121 35.018C34.9771 35.018 34.6471 34.721 34.6471 34.28V32.864H34.9711V34.265C34.9711 34.55 35.1451 34.727 35.4121 34.727C35.6791 34.727 35.8561 34.55 35.8561 34.265V32.864H36.1801V34.28ZM38.2615 35H37.8835L37.4335 34.1H37.0285V35H36.7045V32.864H37.5325C37.9375 32.864 38.1955 33.125 38.1955 33.488C38.1955 33.794 38.0095 33.989 37.7695 34.055L38.2615 35ZM37.8715 33.491C37.8715 33.281 37.7245 33.155 37.5085 33.155H37.0285V33.824H37.5085C37.7245 33.824 37.8715 33.701 37.8715 33.491ZM40.9211 34.916L40.7411 35.096L40.5281 34.883C40.4051 34.97 40.2491 35.018 40.0811 35.018C39.8531 35.018 39.6671 34.937 39.5201 34.79C39.3101 34.58 39.3131 34.343 39.3131 33.932C39.3131 33.521 39.3101 33.284 39.5201 33.074C39.6671 32.927 39.8531 32.846 40.0811 32.846C40.3091 32.846 40.4981 32.927 40.6451 33.074C40.8551 33.284 40.8491 33.521 40.8491 33.932C40.8491 34.295 40.8521 34.517 40.7111 34.709L40.9211 34.916ZM40.5251 33.932C40.5251 33.503 40.5041 33.383 40.3991 33.269C40.3241 33.188 40.2071 33.137 40.0811 33.137C39.9551 33.137 39.8381 33.188 39.7631 33.269C39.6581 33.383 39.6371 33.503 39.6371 33.932C39.6371 34.361 39.6581 34.481 39.7631 34.595C39.8381 34.676 39.9551 34.727 40.0811 34.727C40.1621 34.727 40.2371 34.703 40.3001 34.658L40.0751 34.433L40.2551 34.253L40.4621 34.46C40.5161 34.352 40.5251 34.208 40.5251 33.932ZM42.6655 34.391C42.6655 34.784 42.3445 35.018 41.8975 35.018C41.5765 35.018 41.3455 34.943 41.1415 34.736L41.3575 34.523C41.5135 34.679 41.6845 34.727 41.9035 34.727C42.1825 34.727 42.3445 34.607 42.3445 34.4C42.3445 34.307 42.3175 34.229 42.2605 34.178C42.2065 34.127 42.1525 34.106 42.0265 34.088L41.7745 34.052C41.6005 34.028 41.4625 33.968 41.3695 33.881C41.2645 33.782 41.2135 33.647 41.2135 33.473C41.2135 33.101 41.4835 32.846 41.9275 32.846C42.2095 32.846 42.4075 32.918 42.5905 33.089L42.3835 33.293C42.2515 33.167 42.0985 33.128 41.9185 33.128C41.6665 33.128 41.5285 33.272 41.5285 33.461C41.5285 33.539 41.5525 33.608 41.6095 33.659C41.6635 33.707 41.7505 33.743 41.8495 33.758L42.0925 33.794C42.2905 33.824 42.4015 33.872 42.4915 33.953C42.6085 34.055 42.6655 34.208 42.6655 34.391ZM44.5581 33.932C44.5581 34.343 44.5641 34.58 44.3541 34.79C44.2071 34.937 44.0181 35.018 43.7901 35.018C43.5621 35.018 43.3761 34.937 43.2291 34.79C43.0191 34.58 43.0221 34.343 43.0221 33.932C43.0221 33.521 43.0191 33.284 43.2291 33.074C43.3761 32.927 43.5621 32.846 43.7901 32.846C44.0181 32.846 44.2071 32.927 44.3541 33.074C44.5641 33.284 44.5581 33.521 44.5581 33.932ZM44.2341 33.932C44.2341 33.503 44.2131 33.383 44.1081 33.269C44.0331 33.188 43.9161 33.137 43.7901 33.137C43.6641 33.137 43.5471 33.188 43.4721 33.269C43.3671 33.383 43.3461 33.503 43.3461 33.932C43.3461 34.361 43.3671 34.481 43.4721 34.595C43.5471 34.676 43.6641 34.727 43.7901 34.727C43.9161 34.727 44.0331 34.676 44.1081 34.595C44.2131 34.481 44.2341 34.361 44.2341 33.932Z" fill="white"/>
<path d="M52.1806 32.864L51.5416 34.121V35H51.2176V34.121L50.5786 32.864H50.9326L51.3796 33.803L51.8266 32.864H52.1806ZM53.9031 33.932C53.9031 34.343 53.9091 34.58 53.6991 34.79C53.5521 34.937 53.3631 35.018 53.1351 35.018C52.9071 35.018 52.7211 34.937 52.5741 34.79C52.3641 34.58 52.3671 34.343 52.3671 33.932C52.3671 33.521 52.3641 33.284 52.5741 33.074C52.7211 32.927 52.9071 32.846 53.1351 32.846C53.3631 32.846 53.5521 32.927 53.6991 33.074C53.9091 33.284 53.9031 33.521 53.9031 33.932ZM53.5791 33.932C53.5791 33.503 53.5581 33.383 53.4531 33.269C53.3781 33.188 53.2611 33.137 53.1351 33.137C53.0091 33.137 52.8921 33.188 52.8171 33.269C52.7121 33.383 52.6911 33.503 52.6911 33.932C52.6911 34.361 52.7121 34.481 52.8171 34.595C52.8921 34.676 53.0091 34.727 53.1351 34.727C53.2611 34.727 53.3781 34.676 53.4531 34.595C53.5581 34.481 53.5791 34.361 53.5791 33.932ZM55.8846 34.28C55.8846 34.721 55.5516 35.018 55.1166 35.018C54.6816 35.018 54.3516 34.721 54.3516 34.28V32.864H54.6756V34.265C54.6756 34.55 54.8496 34.727 55.1166 34.727C55.3836 34.727 55.5606 34.55 55.5606 34.265V32.864H55.8846V34.28ZM57.966 35H57.588L57.138 34.1H56.733V35H56.409V32.864H57.237C57.642 32.864 57.9 33.125 57.9 33.488C57.9 33.794 57.714 33.989 57.474 34.055L57.966 35ZM57.576 33.491C57.576 33.281 57.429 33.155 57.213 33.155H56.733V33.824H57.213C57.429 33.824 57.576 33.701 57.576 33.491ZM60.6525 35H60.2745L59.8245 34.1H59.4195V35H59.0955V32.864H59.9235C60.3285 32.864 60.5865 33.125 60.5865 33.488C60.5865 33.794 60.4005 33.989 60.1605 34.055L60.6525 35ZM60.2625 33.491C60.2625 33.281 60.1155 33.155 59.8995 33.155H59.4195V33.824H59.8995C60.1155 33.824 60.2625 33.701 60.2625 33.491ZM62.4264 35H61.0614V32.864H62.4264V33.155H61.3854V33.779H62.2734V34.067H61.3854V34.709H62.4264V35ZM64.363 33.512C64.363 33.884 64.096 34.16 63.679 34.16H63.193V35H62.869V32.864H63.679C64.096 32.864 64.363 33.14 64.363 33.512ZM64.039 33.512C64.039 33.287 63.886 33.155 63.661 33.155H63.193V33.866H63.661C63.886 33.866 64.039 33.737 64.039 33.512ZM66.0667 33.155H65.4787V35H65.1547V33.155H64.5667V32.864H66.0667V33.155Z" fill="white"/>
<path d="M73.2077 35H71.8427V32.864H73.2077V33.155H72.1667V33.779H73.0547V34.067H72.1667V34.709H73.2077V35ZM74.9883 32.864L74.3493 34.121V35H74.0253V34.121L73.3863 32.864H73.7403L74.1873 33.803L74.6343 32.864H74.9883ZM76.6472 35H75.2822V32.864H76.6472V33.155H75.6062V33.779H76.4942V34.067H75.6062V34.709H76.6472V35ZM78.5988 34.397C78.5988 34.79 78.3318 35 77.9538 35H77.0898V32.864H77.9208C78.3168 32.864 78.5658 33.089 78.5658 33.449C78.5658 33.68 78.4218 33.845 78.2778 33.902C78.4428 33.968 78.5988 34.127 78.5988 34.397ZM78.2418 33.461C78.2418 33.263 78.1008 33.155 77.8938 33.155H77.4138V33.767H77.8938C78.1008 33.767 78.2418 33.659 78.2418 33.461ZM78.2748 34.382C78.2748 34.193 78.1488 34.058 77.9238 34.058H77.4138V34.709H77.9238C78.1488 34.709 78.2748 34.571 78.2748 34.382ZM80.6511 35H80.3061L80.1591 34.571H79.3161L79.1691 35H78.8241L79.6071 32.864H79.8681L80.6511 35ZM80.0691 34.295L79.7451 33.347L79.4121 34.295H80.0691ZM82.3071 35H80.9541V32.864H81.2781V34.709H82.3071V35ZM84.0297 35H82.6767V32.864H83.0007V34.709H84.0297V35Z" fill="white"/>
<path d="M28 32.5H31.0546V35.5H28V32.5Z" fill="white"/>
<rect x="47" y="32.5" width="3.05455" height="3" fill="white"/>
<rect x="68" y="32.5" width="3.05455" height="3" fill="white"/>
<path d="M11.12 33.2125C11.19 33.2125 11.29 33.2142 11.42 33.2175L11.575 33.22L11.5375 33.4975L11.3925 33.4925C11.2258 33.4892 11.1217 33.4875 11.08 33.4875H10.97C10.8183 33.4875 10.705 33.5258 10.63 33.6025C10.5567 33.6792 10.5083 33.8033 10.485 33.975L10.44 34.3375C10.4333 34.4042 10.43 34.4508 10.43 34.4775C10.43 34.5992 10.4583 34.6875 10.515 34.7425C10.5733 34.7975 10.6683 34.825 10.8 34.825H10.92C11.0083 34.825 11.1517 34.8192 11.35 34.8075L11.4125 34.805L11.3925 35.08C11.2292 35.0933 11.0633 35.1 10.895 35.1H10.775C10.555 35.0983 10.3933 35.0508 10.29 34.9575C10.1867 34.8642 10.135 34.7175 10.135 34.5175C10.135 34.4658 10.1392 34.4008 10.1475 34.3225L10.185 33.99C10.22 33.7183 10.3025 33.5217 10.4325 33.4C10.5642 33.2767 10.7567 33.2142 11.01 33.2125H11.12ZM12.7868 33.2025C13.0068 33.2042 13.1685 33.2525 13.2718 33.3475C13.3751 33.4408 13.4268 33.5883 13.4268 33.79C13.4268 33.8417 13.4226 33.905 13.4143 33.98L13.3768 34.3225C13.3401 34.5942 13.2568 34.7917 13.1268 34.915C12.9968 35.0367 12.8051 35.0983 12.5518 35.1H12.3668C12.1468 35.0983 11.9851 35.0508 11.8818 34.9575C11.7785 34.8642 11.7268 34.7175 11.7268 34.5175C11.7268 34.4658 11.731 34.4008 11.7393 34.3225L11.7768 33.98C11.8118 33.7083 11.8943 33.5117 12.0243 33.39C12.156 33.2667 12.3485 33.2042 12.6018 33.2025H12.7868ZM12.0318 34.3375C12.0251 34.4042 12.0218 34.4508 12.0218 34.4775C12.0218 34.5992 12.0501 34.6875 12.1068 34.7425C12.1651 34.7958 12.2601 34.8233 12.3918 34.825H12.5918C12.7435 34.8233 12.856 34.785 12.9293 34.71C13.0043 34.6333 13.0535 34.5092 13.0768 34.3375L13.1218 33.965C13.1285 33.8983 13.1318 33.8517 13.1318 33.825C13.1318 33.7033 13.1026 33.6158 13.0443 33.5625C12.9876 33.5075 12.8935 33.4792 12.7618 33.4775H12.5618C12.4101 33.4792 12.2968 33.5183 12.2218 33.595C12.1485 33.67 12.1001 33.7933 12.0768 33.965L12.0318 34.3375ZM13.8382 33.2125H14.1207L14.8757 34.595L14.8882 34.6175L15.0607 33.2125H15.3432L15.1132 35.09H14.8307L14.0732 33.7125L14.0632 33.69L13.8907 35.09H13.6082L13.8382 33.2125ZM15.7132 33.2125H16.9432L16.9107 33.4875H15.9757L15.9057 34.045H16.7532L16.7207 34.32H15.8732L15.7782 35.09H15.4832L15.7132 33.2125ZM17.2122 33.2125H17.5072L17.2772 35.09H16.9822L17.2122 33.2125ZM18.6863 33.2125C18.8563 33.2142 18.9871 33.2542 19.0788 33.3325C19.1704 33.4092 19.2163 33.5208 19.2163 33.6675C19.2163 33.6858 19.2146 33.715 19.2113 33.755L19.2013 33.8375C19.1813 33.9892 19.1279 34.1092 19.0413 34.1975C18.9563 34.2858 18.8413 34.3417 18.6963 34.365L19.2063 35.09H18.8463L18.3713 34.3775H18.0288L17.9413 35.09H17.6463L17.8763 33.2125H18.6863ZM18.5838 34.1075C18.6788 34.1058 18.7521 34.0858 18.8038 34.0475C18.8571 34.0092 18.8896 33.9433 18.9013 33.85L18.9163 33.7425C18.9179 33.7308 18.9188 33.715 18.9188 33.695C18.9188 33.62 18.8971 33.5667 18.8538 33.535C18.8104 33.5017 18.7463 33.4842 18.6613 33.4825H18.1388L18.0613 34.1075H18.5838ZM19.9859 33.2125L20.3984 34.7475H20.4084L21.2009 33.2125H21.5259L21.2959 35.09H21.0259L21.1884 33.765L20.5409 35.0125C20.5143 35.0642 20.4726 35.09 20.4159 35.09H20.3134C20.2551 35.09 20.2201 35.0642 20.2084 35.0125L19.8634 33.765L19.7009 35.09H19.4309L19.6609 33.2125H19.9859ZM21.8948 33.2125H22.1898L21.9598 35.09H21.6648L21.8948 33.2125ZM22.5589 33.2125H22.8414L23.5964 34.595L23.6089 34.6175L23.7814 33.2125H24.0639L23.8339 35.09H23.5514L22.7939 33.7125L22.7839 33.69L22.6114 35.09H22.3289L22.5589 33.2125ZM25.0914 34.825C25.1747 34.825 25.2706 34.8192 25.3789 34.8075L25.4414 34.3125H24.9964L25.0289 34.0375H25.7689L25.6439 35.0575C25.4239 35.0858 25.2306 35.1 25.0639 35.1H24.9339C24.6922 35.0983 24.5164 35.0508 24.4064 34.9575C24.2981 34.8642 24.2439 34.7167 24.2439 34.515C24.2439 34.465 24.2481 34.4008 24.2564 34.3225L24.2939 33.99C24.3172 33.8067 24.3622 33.6583 24.4289 33.545C24.4956 33.4317 24.5897 33.3483 24.7114 33.295C24.8331 33.2417 24.9881 33.2142 25.1764 33.2125H25.2439C25.4456 33.2125 25.6381 33.215 25.8214 33.22L25.7864 33.4975L25.5789 33.4925C25.4022 33.4892 25.2797 33.4875 25.2114 33.4875H25.1364C25.0147 33.4875 24.9172 33.505 24.8439 33.54C24.7706 33.5733 24.7139 33.625 24.6739 33.695C24.6356 33.765 24.6089 33.8583 24.5939 33.975L24.5489 34.3375C24.5422 34.4042 24.5389 34.4492 24.5389 34.4725C24.5389 34.5975 24.5706 34.6875 24.6339 34.7425C24.6989 34.7958 24.8097 34.8233 24.9664 34.825H25.0914Z" fill="white"/>
<rect x="64" y="77" width="5" height="6" fill="#5B5B5B" fill-opacity="0.2"/>
<rect x="70" y="77" width="5" height="6" fill="#5B5B5B" fill-opacity="0.2"/>
<rect x="76" y="77" width="5" height="6" fill="#5B5B5B" fill-opacity="0.2"/>
<rect x="54.15" y="13.15" width="30.7" height="13.7" stroke="#5B5B5B" stroke-width="0.3"/>
<path d="M62.4483 15.185L62.4873 14.855H64.2663L64.2273 15.185H63.5043L63.2733 17.108H62.9193L63.1503 15.185H62.4483ZM65.5947 14.843C65.8587 14.845 66.0527 14.903 66.1767 15.017C66.3007 15.129 66.3627 15.306 66.3627 15.548C66.3627 15.61 66.3577 15.686 66.3477 15.776L66.3027 16.187C66.2587 16.513 66.1587 16.75 66.0027 16.898C65.8467 17.044 65.6167 17.118 65.3127 17.12H65.0907C64.8267 17.118 64.6327 17.061 64.5087 16.949C64.3847 16.837 64.3227 16.661 64.3227 16.421C64.3227 16.359 64.3277 16.281 64.3377 16.187L64.3827 15.776C64.4247 15.45 64.5237 15.214 64.6797 15.068C64.8377 14.92 65.0687 14.845 65.3727 14.843H65.5947ZM64.6887 16.205C64.6807 16.285 64.6767 16.341 64.6767 16.373C64.6767 16.519 64.7107 16.625 64.7787 16.691C64.8487 16.755 64.9627 16.788 65.1207 16.79H65.3607C65.5427 16.788 65.6777 16.742 65.7657 16.652C65.8557 16.56 65.9147 16.411 65.9427 16.205L65.9967 15.758C66.0047 15.678 66.0087 15.622 66.0087 15.59C66.0087 15.444 65.9737 15.339 65.9037 15.275C65.8357 15.209 65.7227 15.175 65.5647 15.173H65.3247C65.1427 15.175 65.0067 15.222 64.9167 15.314C64.8287 15.404 64.7707 15.552 64.7427 15.758L64.6887 16.205ZM68.4875 14.855C68.6915 14.857 68.8485 14.905 68.9585 14.999C69.0685 15.091 69.1235 15.225 69.1235 15.401C69.1235 15.423 69.1215 15.458 69.1175 15.506L69.1055 15.605C69.0815 15.787 69.0175 15.931 68.9135 16.037C68.8115 16.143 68.6735 16.21 68.4995 16.238L69.1115 17.108H68.6795L68.1095 16.253H67.6985L67.5935 17.108H67.2395L67.5155 14.855H68.4875ZM68.3645 15.929C68.4785 15.927 68.5665 15.903 68.6285 15.857C68.6925 15.811 68.7315 15.732 68.7455 15.62L68.7635 15.491C68.7655 15.477 68.7665 15.458 68.7665 15.434C68.7665 15.344 68.7405 15.28 68.6885 15.242C68.6365 15.202 68.5595 15.181 68.4575 15.179H67.8305L67.7375 15.929H68.3645ZM70.7581 14.855C70.8701 14.855 70.9351 14.909 70.9531 15.017L71.2951 17.108H70.9201L70.8211 16.457H69.8521L69.5911 17.108H69.2041L70.0681 14.993C70.1061 14.901 70.1761 14.855 70.2781 14.855H70.7581ZM70.3651 15.185L69.9841 16.127H70.7701L70.6261 15.185H70.3651ZM72.7668 14.855C73.0308 14.857 73.2248 14.915 73.3488 15.029C73.4728 15.141 73.5348 15.318 73.5348 15.56C73.5348 15.622 73.5298 15.698 73.5198 15.788L73.4748 16.175C73.4308 16.501 73.3308 16.738 73.1748 16.886C73.0188 17.032 72.7898 17.106 72.4878 17.108H71.5608L71.8368 14.855H72.7668ZM72.5328 16.778C72.7148 16.778 72.8508 16.732 72.9408 16.64C73.0308 16.548 73.0888 16.399 73.1148 16.193L73.1688 15.77C73.1768 15.69 73.1808 15.634 73.1808 15.602C73.1808 15.456 73.1458 15.35 73.0758 15.284C73.0078 15.218 72.8948 15.185 72.7368 15.185H72.1518L71.9538 16.778H72.5328ZM74.0282 14.855H74.3822L74.1062 17.108H73.7522L74.0282 14.855ZM75.8691 14.843C76.1331 14.845 76.3271 14.903 76.4511 15.017C76.5751 15.129 76.6371 15.306 76.6371 15.548C76.6371 15.61 76.6321 15.686 76.6221 15.776L76.5771 16.187C76.5331 16.513 76.4331 16.75 76.2771 16.898C76.1211 17.044 75.8911 17.118 75.5871 17.12H75.3651C75.1011 17.118 74.9071 17.061 74.7831 16.949C74.6591 16.837 74.5971 16.661 74.5971 16.421C74.5971 16.359 74.6021 16.281 74.6121 16.187L74.6571 15.776C74.6991 15.45 74.7981 15.214 74.9541 15.068C75.1121 14.92 75.3431 14.845 75.6471 14.843H75.8691ZM74.9631 16.205C74.9551 16.285 74.9511 16.341 74.9511 16.373C74.9511 16.519 74.9851 16.625 75.0531 16.691C75.1231 16.755 75.2371 16.788 75.3951 16.79H75.6351C75.8171 16.788 75.9521 16.742 76.0401 16.652C76.1301 16.56 76.1891 16.411 76.2171 16.205L76.2711 15.758C76.2791 15.678 76.2831 15.622 76.2831 15.59C76.2831 15.444 76.2481 15.339 76.1781 15.275C76.1101 15.209 75.9971 15.175 75.8391 15.173H75.5991C75.4171 15.175 75.2811 15.222 75.1911 15.314C75.1031 15.404 75.0451 15.552 75.0171 15.758L74.9631 16.205Z" fill="#5B5B5B"/>
<path d="M38.9043 75.1504V77.8496H36.1504V75.1504H38.9043Z" stroke="#5B5B5B" stroke-width="0.3"/>
<path d="M49.9043 75.1504V77.8496H47.1504V75.1504H49.9043Z" stroke="#5B5B5B" stroke-width="0.3"/>
<path d="M38.9043 79.1504V81.8496H36.1504V79.1504H38.9043Z" stroke="#5B5B5B" stroke-width="0.3"/>
<path d="M49.9043 79.1504V81.8496H47.1504V79.1504H49.9043Z" stroke="#5B5B5B" stroke-width="0.3"/>
<path d="M38.9043 83.1504V85.8496H36.1504V83.1504H38.9043Z" stroke="#5B5B5B" stroke-width="0.3"/>
<path d="M49.9043 83.1504V85.8496H47.1504V83.1504H49.9043Z" stroke="#5B5B5B" stroke-width="0.3"/>
<path d="M41.644 76.155H40.603V76.806H41.491V77.097H40.603V78H40.279V75.864H41.644V76.155ZM43.9179 78H43.5939V76.572L43.1019 77.613H42.8619L42.3579 76.572V78H42.0339V75.864H42.3579L42.9819 77.193L43.5939 75.864H43.9179V78Z" fill="#5B5B5B"/>
<path d="M41.614 81.391C41.614 81.784 41.293 82.018 40.846 82.018C40.525 82.018 40.294 81.943 40.09 81.736L40.306 81.523C40.462 81.679 40.633 81.727 40.852 81.727C41.131 81.727 41.293 81.607 41.293 81.4C41.293 81.307 41.266 81.229 41.209 81.178C41.155 81.127 41.101 81.106 40.975 81.088L40.723 81.052C40.549 81.028 40.411 80.968 40.318 80.881C40.213 80.782 40.162 80.647 40.162 80.473C40.162 80.101 40.432 79.846 40.876 79.846C41.158 79.846 41.356 79.918 41.539 80.089L41.332 80.293C41.2 80.167 41.047 80.128 40.867 80.128C40.615 80.128 40.477 80.272 40.477 80.461C40.477 80.539 40.501 80.608 40.558 80.659C40.612 80.707 40.699 80.743 40.798 80.758L41.041 80.794C41.239 80.824 41.35 80.872 41.44 80.953C41.557 81.055 41.614 81.208 41.614 81.391ZM43.3542 81.391C43.3542 81.784 43.0332 82.018 42.5862 82.018C42.2652 82.018 42.0342 81.943 41.8302 81.736L42.0462 81.523C42.2022 81.679 42.3732 81.727 42.5922 81.727C42.8712 81.727 43.0332 81.607 43.0332 81.4C43.0332 81.307 43.0062 81.229 42.9492 81.178C42.8952 81.127 42.8412 81.106 42.7152 81.088L42.4632 81.052C42.2892 81.028 42.1512 80.968 42.0582 80.881C41.9532 80.782 41.9022 80.647 41.9022 80.473C41.9022 80.101 42.1722 79.846 42.6162 79.846C42.8982 79.846 43.0962 79.918 43.2792 80.089L43.0722 80.293C42.9402 80.167 42.7872 80.128 42.6072 80.128C42.3552 80.128 42.2172 80.272 42.2172 80.461C42.2172 80.539 42.2412 80.608 42.2982 80.659C42.3522 80.707 42.4392 80.743 42.5382 80.758L42.7812 80.794C42.9792 80.824 43.0902 80.872 43.1802 80.953C43.2972 81.055 43.3542 81.208 43.3542 81.391ZM45.2978 81.397C45.2978 81.79 45.0308 82 44.6528 82H43.7888V79.864H44.6198C45.0158 79.864 45.2648 80.089 45.2648 80.449C45.2648 80.68 45.1208 80.845 44.9768 80.902C45.1418 80.968 45.2978 81.127 45.2978 81.397ZM44.9408 80.461C44.9408 80.263 44.7998 80.155 44.5928 80.155H44.1128V80.767H44.5928C44.7998 80.767 44.9408 80.659 44.9408 80.461ZM44.9738 81.382C44.9738 81.193 44.8478 81.058 44.6228 81.058H44.1128V81.709H44.6228C44.8478 81.709 44.9738 81.571 44.9738 81.382Z" fill="#5B5B5B"/>
<path d="M41.731 85.361C41.659 85.787 41.356 86.018 40.969 86.018C40.747 86.018 40.555 85.937 40.408 85.79C40.198 85.58 40.201 85.343 40.201 84.932C40.201 84.521 40.198 84.284 40.408 84.074C40.555 83.927 40.747 83.846 40.969 83.846C41.362 83.846 41.656 84.077 41.731 84.503H41.401C41.35 84.287 41.206 84.137 40.969 84.137C40.843 84.137 40.729 84.185 40.654 84.266C40.549 84.38 40.525 84.503 40.525 84.932C40.525 85.361 40.549 85.484 40.654 85.598C40.729 85.679 40.843 85.727 40.969 85.727C41.206 85.727 41.353 85.577 41.404 85.361H41.731ZM44.4345 83.864L43.8765 86H43.5945L43.1595 84.503L42.7275 86H42.4455L41.8875 83.864H42.2295L42.6015 85.391L43.0305 83.864H43.2915L43.7205 85.391L44.0925 83.864H44.4345Z" fill="#5B5B5B"/>
<path d="M52.614 77.391C52.614 77.784 52.293 78.018 51.846 78.018C51.525 78.018 51.294 77.943 51.09 77.736L51.306 77.523C51.462 77.679 51.633 77.727 51.852 77.727C52.131 77.727 52.293 77.607 52.293 77.4C52.293 77.307 52.266 77.229 52.209 77.178C52.155 77.127 52.101 77.106 51.975 77.088L51.723 77.052C51.549 77.028 51.411 76.968 51.318 76.881C51.213 76.782 51.162 76.647 51.162 76.473C51.162 76.101 51.432 75.846 51.876 75.846C52.158 75.846 52.356 75.918 52.539 76.089L52.332 76.293C52.2 76.167 52.047 76.128 51.867 76.128C51.615 76.128 51.477 76.272 51.477 76.461C51.477 76.539 51.501 76.608 51.558 76.659C51.612 76.707 51.699 76.743 51.798 76.758L52.041 76.794C52.239 76.824 52.35 76.872 52.44 76.953C52.557 77.055 52.614 77.208 52.614 77.391ZM54.3542 77.391C54.3542 77.784 54.0332 78.018 53.5862 78.018C53.2652 78.018 53.0342 77.943 52.8302 77.736L53.0462 77.523C53.2022 77.679 53.3732 77.727 53.5922 77.727C53.8712 77.727 54.0332 77.607 54.0332 77.4C54.0332 77.307 54.0062 77.229 53.9492 77.178C53.8952 77.127 53.8412 77.106 53.7152 77.088L53.4632 77.052C53.2892 77.028 53.1512 76.968 53.0582 76.881C52.9532 76.782 52.9022 76.647 52.9022 76.473C52.9022 76.101 53.1722 75.846 53.6162 75.846C53.8982 75.846 54.0962 75.918 54.2792 76.089L54.0722 76.293C53.9402 76.167 53.7872 76.128 53.6072 76.128C53.3552 76.128 53.2172 76.272 53.2172 76.461C53.2172 76.539 53.2412 76.608 53.2982 76.659C53.3522 76.707 53.4392 76.743 53.5382 76.758L53.7812 76.794C53.9792 76.824 54.0902 76.872 54.1802 76.953C54.2972 77.055 54.3542 77.208 54.3542 77.391ZM56.0998 76.155H55.5118V78H55.1878V76.155H54.5998V75.864H56.0998V76.155ZM57.8655 75.864L57.1575 78H56.9055L56.2035 75.864H56.5395L57.0315 77.418L57.5235 75.864H57.8655Z" fill="#5B5B5B"/>
<path d="M52.836 82H52.458L52.008 81.1H51.603V82H51.279V79.864H52.107C52.512 79.864 52.77 80.125 52.77 80.488C52.77 80.794 52.584 80.989 52.344 81.055L52.836 82ZM52.446 80.491C52.446 80.281 52.299 80.155 52.083 80.155H51.603V80.824H52.083C52.299 80.824 52.446 80.701 52.446 80.491ZM54.5558 80.155H53.9678V82H53.6438V80.155H53.0558V79.864H54.5558V80.155ZM56.2345 80.155H55.6465V82H55.3225V80.155H54.7345V79.864H56.2345V80.155ZM57.9402 79.864L57.3012 81.121V82H56.9772V81.121L56.3382 79.864H56.6922L57.1392 80.803L57.5862 79.864H57.9402Z" fill="#5B5B5B"/>
<path d="M52.644 84.155H51.603V84.806H52.491V85.097H51.603V86H51.279V83.864H52.644V84.155ZM54.3449 84.155H53.7569V86H53.4329V84.155H52.8449V83.864H54.3449V84.155ZM55.8916 85.397C55.8916 85.784 55.5976 86.018 55.2316 86.018C54.8656 86.018 54.5746 85.784 54.5746 85.397C54.5746 85.142 54.7186 84.986 54.8686 84.896C54.7306 84.812 54.6106 84.662 54.6106 84.437C54.6106 84.08 54.8836 83.846 55.2316 83.846C55.5796 83.846 55.8556 84.08 55.8556 84.437C55.8556 84.662 55.7356 84.812 55.5976 84.896C55.7476 84.986 55.8916 85.142 55.8916 85.397ZM55.5496 84.446C55.5496 84.26 55.4176 84.119 55.2316 84.119C55.0456 84.119 54.9166 84.26 54.9166 84.446C54.9166 84.635 55.0456 84.77 55.2316 84.77C55.4176 84.77 55.5496 84.635 55.5496 84.446ZM55.5826 85.391C55.5826 85.193 55.4296 85.034 55.2316 85.034C55.0336 85.034 54.8806 85.193 54.8806 85.391C54.8806 85.589 55.0336 85.745 55.2316 85.745C55.4296 85.745 55.5826 85.589 55.5826 85.391Z" fill="#5B5B5B"/>
<path d="M26.0749 83.855L26.5699 85.697H26.5819L27.5329 83.855H27.9229L27.6469 86.108H27.3229L27.5179 84.518L26.7409 86.015C26.7089 86.077 26.6589 86.108 26.5909 86.108H26.4679C26.3979 86.108 26.3559 86.077 26.3419 86.015L25.9279 84.518L25.7329 86.108H25.4089L25.6849 83.855H26.0749ZM28.3656 83.855H28.7196L28.6056 84.788H29.6916L29.8056 83.855H30.1596L29.8836 86.108H29.5296L29.6496 85.118H28.5636L28.4436 86.108H28.0896L28.3656 83.855ZM30.4029 84.437H31.6629L31.6329 84.701L30.6909 85.799H31.5549L31.5129 86.108H30.2169L30.2469 85.844L31.1799 84.746H30.3609L30.4029 84.437Z" fill="#5B5B5B"/>
<path d="M11 111H14.0546V114H11V111Z" fill="white"/>
<path d="M16.356 111.855C16.564 111.857 16.724 111.907 16.836 112.005C16.95 112.101 17.007 112.24 17.007 112.422C17.007 112.472 17.005 112.511 17.001 112.539L16.983 112.692C16.955 112.912 16.871 113.081 16.731 113.199C16.591 113.315 16.404 113.374 16.17 113.376H15.558L15.468 114.108H15.114L15.39 111.855H16.356ZM16.218 113.046C16.342 113.044 16.437 113.017 16.503 112.965C16.569 112.911 16.61 112.826 16.626 112.71L16.65 112.527C16.652 112.513 16.653 112.494 16.653 112.47C16.653 112.372 16.626 112.301 16.572 112.257C16.52 112.211 16.438 112.187 16.326 112.185H15.705L15.597 113.046H16.218ZM17.6962 114.12C17.4342 114.12 17.2182 114.107 17.0482 114.081L17.0902 113.745C17.3342 113.775 17.5492 113.79 17.7352 113.79H17.7742C17.9002 113.79 17.9992 113.778 18.0712 113.754C18.1452 113.73 18.1982 113.695 18.2302 113.649C18.2622 113.603 18.2822 113.544 18.2902 113.472C18.2942 113.436 18.2962 113.411 18.2962 113.397C18.2962 113.327 18.2802 113.274 18.2482 113.238C18.2162 113.202 18.1682 113.177 18.1042 113.163C18.0422 113.147 17.9482 113.131 17.8222 113.115C17.6782 113.099 17.5642 113.074 17.4802 113.04C17.3962 113.006 17.3332 112.957 17.2912 112.893C17.2512 112.827 17.2312 112.739 17.2312 112.629C17.2312 112.585 17.2342 112.536 17.2402 112.482C17.2662 112.256 17.3422 112.095 17.4682 111.999C17.5942 111.903 17.7872 111.855 18.0472 111.855H18.2572C18.4092 111.855 18.5772 111.857 18.7612 111.861L18.7222 112.191C18.6162 112.191 18.5352 112.19 18.4792 112.188L18.2182 112.185H18.0082C17.8622 112.185 17.7552 112.211 17.6872 112.263C17.6212 112.313 17.5882 112.409 17.5882 112.551C17.5882 112.613 17.6002 112.66 17.6242 112.692C17.6482 112.722 17.6812 112.743 17.7232 112.755C17.7652 112.767 17.8332 112.78 17.9272 112.794C17.9452 112.796 17.9812 112.801 18.0352 112.809C18.1832 112.831 18.3012 112.86 18.3892 112.896C18.4772 112.932 18.5432 112.984 18.5872 113.052C18.6312 113.118 18.6532 113.208 18.6532 113.322C18.6532 113.364 18.6502 113.409 18.6442 113.457C18.6242 113.623 18.5802 113.754 18.5122 113.85C18.4462 113.946 18.3502 114.015 18.2242 114.057C18.0982 114.099 17.9352 114.12 17.7352 114.12H17.6962ZM19.1752 111.855H20.6272L20.5882 112.179H19.4902L19.4122 112.806H20.3722L20.3332 113.127H19.3732L19.2922 113.781H20.4172L20.3782 114.108H18.8992L19.1752 111.855Z" fill="white"/>
<path d="M27.189 112.185L27.228 111.855H29.007L28.968 112.185H28.245L28.014 114.108H27.66L27.891 112.185H27.189ZM29.2914 111.855H29.6304L30.5364 113.514L30.5514 113.541L30.7584 111.855H31.0974L30.8214 114.108H30.4824L29.5734 112.455L29.5614 112.428L29.3544 114.108H29.0154L29.2914 111.855ZM31.5234 114.108H31.0824L32.0544 112.953L31.4214 111.855H31.8384L32.3064 112.689L32.9694 111.855H33.3984L32.4834 112.977L33.1554 114.108H32.7324L32.2344 113.241L31.5234 114.108ZM35.4008 111.843C35.6648 111.845 35.8588 111.903 35.9828 112.017C36.1068 112.129 36.1688 112.306 36.1688 112.548C36.1688 112.61 36.1638 112.686 36.1538 112.776L36.1088 113.187C36.0648 113.521 35.9598 113.763 35.7938 113.913L36.1508 114.372L35.8418 114.606L35.4458 114.084C35.3498 114.108 35.2408 114.12 35.1188 114.12H34.8968C34.6328 114.118 34.4388 114.061 34.3148 113.949C34.1908 113.837 34.1288 113.661 34.1288 113.421C34.1288 113.359 34.1338 113.281 34.1438 113.187L34.1888 112.776C34.2308 112.45 34.3298 112.214 34.4858 112.068C34.6438 111.92 34.8748 111.845 35.1788 111.843H35.4008ZM34.4948 113.205C34.4868 113.285 34.4828 113.341 34.4828 113.373C34.4828 113.519 34.5168 113.625 34.5848 113.691C34.6548 113.757 34.7688 113.79 34.9268 113.79H35.1668C35.3488 113.79 35.4838 113.744 35.5718 113.652C35.6618 113.56 35.7208 113.411 35.7488 113.205L35.8028 112.758C35.8108 112.678 35.8148 112.622 35.8148 112.59C35.8148 112.444 35.7798 112.338 35.7098 112.272C35.6418 112.206 35.5288 112.173 35.3708 112.173H35.1308C34.9488 112.173 34.8128 112.219 34.7228 112.311C34.6348 112.403 34.5768 112.552 34.5488 112.758L34.4948 113.205ZM36.9648 114.12C36.7028 114.12 36.4868 114.107 36.3168 114.081L36.3588 113.745C36.6028 113.775 36.8178 113.79 37.0038 113.79H37.0428C37.1688 113.79 37.2678 113.778 37.3398 113.754C37.4138 113.73 37.4668 113.695 37.4988 113.649C37.5308 113.603 37.5508 113.544 37.5588 113.472C37.5628 113.436 37.5648 113.411 37.5648 113.397C37.5648 113.327 37.5488 113.274 37.5168 113.238C37.4848 113.202 37.4368 113.177 37.3728 113.163C37.3108 113.147 37.2168 113.131 37.0908 113.115C36.9468 113.099 36.8328 113.074 36.7488 113.04C36.6648 113.006 36.6018 112.957 36.5598 112.893C36.5198 112.827 36.4998 112.739 36.4998 112.629C36.4998 112.585 36.5028 112.536 36.5088 112.482C36.5348 112.256 36.6108 112.095 36.7368 111.999C36.8628 111.903 37.0558 111.855 37.3158 111.855H37.5258C37.6778 111.855 37.8458 111.857 38.0298 111.861L37.9908 112.191C37.8848 112.191 37.8038 112.19 37.7478 112.188L37.4868 112.185H37.2768C37.1308 112.185 37.0238 112.211 36.9558 112.263C36.8898 112.313 36.8568 112.409 36.8568 112.551C36.8568 112.613 36.8688 112.66 36.8928 112.692C36.9168 112.722 36.9498 112.743 36.9918 112.755C37.0338 112.767 37.1018 112.78 37.1958 112.794C37.2138 112.796 37.2498 112.801 37.3038 112.809C37.4518 112.831 37.5698 112.86 37.6578 112.896C37.7458 112.932 37.8118 112.984 37.8558 113.052C37.8998 113.118 37.9218 113.208 37.9218 113.322C37.9218 113.364 37.9188 113.409 37.9128 113.457C37.8928 113.623 37.8488 113.754 37.7808 113.85C37.7148 113.946 37.6188 114.015 37.4928 114.057C37.3668 114.099 37.2038 114.12 37.0038 114.12H36.9648ZM38.4437 111.855H38.7977L38.5607 113.778H39.7307L39.6917 114.108H38.1677L38.4437 111.855Z" fill="white"/>
<path d="M23 111H26.0546V114H23V111Z" fill="white"/>
</g>
<defs>
<clipPath id="clip0_378_159">
<rect width="144" height="94" fill="white" transform="translate(94 4.10887e-06) rotate(90)"/>
</clipPath>
</defs>
</svg>
